<svg width="520" height="59" viewBox="0 0 520 59" fill="none" xmlns="http://www.w3.org/2000/svg">
<path d="M246.276 14.7102C246.87 14.6036 247.174 14.4971 247.251 13.934L248.148 6.64388C248.209 6.1112 247.935 6.00467 247.342 5.89813L247.387 5.57852H250.766C253.034 5.57852 255.149 6.49169 255.149 9.55079C255.149 12.6099 253.095 14.9993 249.777 14.9993C249.229 14.9993 248.346 14.9232 247.722 14.9232C247.311 14.9232 246.84 14.9537 246.231 15.0298L246.276 14.7102ZM248.514 13.934C248.438 14.4971 249.138 14.6036 249.731 14.6036C252.44 14.6036 253.734 12.1838 253.734 9.41382C253.734 7.38963 252.988 5.98945 250.721 5.98945H250.416C249.807 5.98945 249.473 6.1112 249.412 6.64388L248.514 13.934ZM258.349 15.1211C256.979 15.1211 255.974 14.1471 255.974 12.3207C255.974 10.0074 257.542 8.02885 259.764 8.02885C260.632 8.02885 261.012 8.31802 261.469 8.31802C261.803 8.31802 261.88 8.16582 262.047 8.16582C262.184 8.16582 262.26 8.24192 262.245 8.39412L261.56 13.8275C261.484 14.4362 261.956 14.6341 262.458 14.3601L262.397 14.6645C262.032 14.9993 261.712 15.1211 261.377 15.1211C260.829 15.1211 260.555 14.7863 260.479 14.4514C260.434 14.1927 260.312 14.2384 260.114 14.421C259.581 14.908 258.988 15.1211 258.349 15.1211ZM257.207 12.0011C257.207 13.4317 257.816 14.4971 258.927 14.4971C259.718 14.4971 260.479 13.9644 260.738 11.7728L260.875 10.7227C261.073 9.09421 260.708 8.39412 259.703 8.39412C257.999 8.39412 257.207 10.3574 257.207 12.0011ZM265.431 15.1059C264.487 15.1059 263.863 14.5732 264.015 13.31L264.518 9.09421C264.548 8.6985 264.441 8.62241 264.244 8.62241H263.559L263.604 8.28758C264.411 7.96797 264.974 7.52661 265.446 6.68954C265.492 6.59822 265.568 6.56778 265.644 6.56778H265.766C265.857 6.56778 265.918 6.62866 265.902 6.71998L265.766 7.77012C265.72 8.07451 265.826 8.16582 266.42 8.16582H267.516L267.44 8.71372L266.374 8.65285C265.766 8.62241 265.659 8.74416 265.613 9.12465L265.172 13.1426C265.065 14.0405 265.157 14.6036 265.857 14.6036C266.161 14.6036 266.42 14.4971 266.679 14.3297L266.785 14.5428C266.481 14.8472 266.085 15.1059 265.431 15.1059ZM270.652 15.1211C269.008 15.1211 267.806 13.9035 267.806 12.062C267.806 10.2661 268.977 7.99841 271.336 7.99841C272.721 7.99841 273.421 8.74416 273.421 9.74864C273.421 10.7988 272.661 11.575 270.378 11.9555L269.556 12.0924C269.175 12.1533 269.084 12.4881 269.282 12.9752C269.601 13.7818 270.241 14.3601 271.184 14.3601C271.778 14.3601 272.463 14.1318 272.904 13.6296L273.117 13.8731C272.706 14.3906 271.915 15.1211 270.652 15.1211ZM268.993 11.2249C268.993 11.6815 269.282 11.788 269.632 11.7272L270.134 11.6511C272.052 11.3315 272.28 10.4944 272.28 9.77908C272.28 8.91158 271.9 8.34846 271.093 8.34846C269.921 8.34846 268.993 9.55079 268.993 11.2249Z" fill="black"/>
<path d="M196.699 35.7126C196.986 35.4844 197.117 35.3787 197.092 35.3956C197.92 34.7109 198.571 34.1488 199.045 33.7092C199.527 33.2696 199.932 32.8089 200.262 32.3271C200.592 31.8453 200.756 31.3761 200.756 30.9197C200.756 30.5731 200.676 30.3026 200.516 30.1082C200.355 29.9137 200.114 29.8165 199.793 29.8165C199.472 29.8165 199.218 29.9391 199.032 30.1843C198.855 30.4209 198.766 30.7591 198.766 31.1986H196.674C196.691 30.4801 196.843 29.8799 197.13 29.3981C197.426 28.9163 197.811 28.5613 198.284 28.333C198.766 28.1048 199.298 27.9907 199.882 27.9907C200.888 27.9907 201.644 28.2485 202.151 28.7641C202.667 29.2798 202.925 29.9518 202.925 30.7802C202.925 31.6847 202.616 32.5258 201.999 33.3035C201.382 34.0727 200.596 34.825 199.641 35.5604H203.064V37.3229H196.699V35.7126ZM210.473 29.8165L207.29 37.4497H205.071L208.292 30.0575H204.348V28.2062H210.473V29.8165ZM220.884 35.8774H217.562L217.029 37.4497H214.759L217.98 28.5486H220.491L223.711 37.4497H221.416L220.884 35.8774ZM220.326 34.2037L219.223 30.945L218.132 34.2037H220.326ZM227.367 28.5486V33.874C227.367 34.4066 227.498 34.8166 227.76 35.104C228.022 35.3914 228.407 35.5351 228.914 35.5351C229.421 35.5351 229.81 35.3914 230.08 35.104C230.351 34.8166 230.486 34.4066 230.486 33.874V28.5486H232.654V33.8614C232.654 34.656 232.485 35.328 232.147 35.8774C231.809 36.4269 231.353 36.8411 230.778 37.12C230.211 37.399 229.577 37.5385 228.876 37.5385C228.174 37.5385 227.544 37.4032 226.986 37.1327C226.437 36.8538 226.002 36.4396 225.68 35.8901C225.359 35.3322 225.199 34.656 225.199 33.8614V28.5486H227.367ZM237.663 35.7126C237.95 35.4844 238.081 35.3787 238.056 35.3956C238.884 34.7109 239.535 34.1488 240.008 33.7092C240.49 33.2696 240.896 32.8089 241.226 32.3271C241.555 31.8453 241.72 31.3761 241.72 30.9197C241.72 30.5731 241.64 30.3026 241.479 30.1082C241.319 29.9137 241.078 29.8165 240.757 29.8165C240.435 29.8165 240.182 29.9391 239.996 30.1843C239.818 30.4209 239.729 30.7591 239.729 31.1986H237.637C237.654 30.4801 237.806 29.8799 238.094 29.3981C238.39 28.9163 238.774 28.5613 239.248 28.333C239.729 28.1048 240.262 27.9907 240.845 27.9907C241.851 27.9907 242.608 28.2485 243.115 28.7641C243.631 29.2798 243.888 29.9518 243.888 30.7802C243.888 31.6847 243.58 32.5258 242.963 33.3035C242.346 34.0727 241.56 34.825 240.604 35.5604H244.028V37.3229H237.663V35.7126ZM247.049 32.4793C246.255 32.0566 245.857 31.393 245.857 30.4886C245.857 30.0321 245.976 29.6179 246.212 29.246C246.449 28.8656 246.808 28.5655 247.29 28.3457C247.772 28.1175 248.364 28.0033 249.065 28.0033C249.767 28.0033 250.354 28.1175 250.828 28.3457C251.31 28.5655 251.669 28.8656 251.906 29.246C252.142 29.6179 252.261 30.0321 252.261 30.4886C252.261 30.945 252.151 31.3423 251.931 31.6805C251.72 32.0186 251.432 32.2849 251.069 32.4793C251.525 32.6991 251.876 33.0034 252.121 33.3922C252.366 33.7726 252.489 34.2206 252.489 34.7363C252.489 35.3364 252.337 35.8563 252.032 36.2959C251.728 36.727 251.314 37.0566 250.79 37.2849C250.274 37.5131 249.699 37.6272 249.065 37.6272C248.431 37.6272 247.852 37.5131 247.328 37.2849C246.813 37.0566 246.403 36.727 246.098 36.2959C245.794 35.8563 245.642 35.3364 245.642 34.7363C245.642 34.2122 245.764 33.7599 246.01 33.3795C246.255 32.9907 246.601 32.6906 247.049 32.4793ZM250.156 30.8182C250.156 30.4717 250.054 30.2054 249.852 30.0194C249.657 29.825 249.395 29.7278 249.065 29.7278C248.736 29.7278 248.469 29.825 248.267 30.0194C248.072 30.2138 247.975 30.4843 247.975 30.8309C247.975 31.1606 248.076 31.4226 248.279 31.6171C248.482 31.803 248.744 31.896 249.065 31.896C249.387 31.896 249.649 31.7988 249.852 31.6044C250.054 31.41 250.156 31.1479 250.156 30.8182ZM249.065 33.4176C248.668 33.4176 248.347 33.5275 248.102 33.7472C247.857 33.9586 247.734 34.2544 247.734 34.6348C247.734 34.9898 247.852 35.2815 248.089 35.5097C248.334 35.738 248.66 35.8521 249.065 35.8521C249.471 35.8521 249.788 35.738 250.016 35.5097C250.253 35.2815 250.371 34.9898 250.371 34.6348C250.371 34.2629 250.249 33.967 250.004 33.7472C249.767 33.5275 249.454 33.4176 249.065 33.4176ZM263.322 28.5486V34.6095C263.322 35.5478 263.056 36.2705 262.523 36.7777C261.999 37.2849 261.289 37.5385 260.393 37.5385C259.454 37.5385 258.702 37.2722 258.136 36.7396C257.569 36.2071 257.286 35.4505 257.286 34.47H259.442C259.442 34.8419 259.518 35.1251 259.67 35.3195C259.822 35.5055 260.042 35.5985 260.329 35.5985C260.591 35.5985 260.794 35.5139 260.938 35.3449C261.082 35.1758 261.154 34.9307 261.154 34.6095V28.5486H263.322ZM267.749 28.5486V33.874C267.749 34.4066 267.88 34.8166 268.142 35.104C268.404 35.3914 268.788 35.5351 269.296 35.5351C269.803 35.5351 270.192 35.3914 270.462 35.104C270.733 34.8166 270.868 34.4066 270.868 33.874V28.5486H273.036V33.8614C273.036 34.656 272.867 35.328 272.529 35.8774C272.191 36.4269 271.734 36.8411 271.159 37.12C270.593 37.399 269.959 37.5385 269.257 37.5385C268.556 37.5385 267.926 37.4032 267.368 37.1327C266.819 36.8538 266.383 36.4396 266.062 35.8901C265.741 35.3322 265.58 34.656 265.58 33.8614V28.5486H267.749ZM277.272 28.5486V37.4497H275.104V28.5486H277.272ZM287.351 37.4497H285.183L281.557 31.9594V37.4497H279.389V28.5486H281.557L285.183 34.0642V28.5486H287.351V37.4497ZM292.409 35.7126C292.696 35.4844 292.827 35.3787 292.802 35.3956C293.63 34.7109 294.281 34.1488 294.755 33.7092C295.236 33.2696 295.642 32.8089 295.972 32.3271C296.302 31.8453 296.466 31.3761 296.466 30.9197C296.466 30.5731 296.386 30.3026 296.225 30.1082C296.065 29.9137 295.824 29.8165 295.503 29.8165C295.181 29.8165 294.928 29.9391 294.742 30.1843C294.564 30.4209 294.476 30.7591 294.476 31.1986H292.384C292.4 30.4801 292.553 29.8799 292.84 29.3981C293.136 28.9163 293.52 28.5613 293.994 28.333C294.476 28.1048 295.008 27.9907 295.591 27.9907C296.597 27.9907 297.354 28.2485 297.861 28.7641C298.377 29.2798 298.635 29.9518 298.635 30.7802C298.635 31.6847 298.326 32.5258 297.709 33.3035C297.092 34.0727 296.306 34.825 295.351 35.5604H298.774V37.3229H292.409V35.7126ZM300.274 32.6948C300.274 31.2409 300.553 30.0955 301.111 29.2586C301.677 28.4218 302.586 28.0033 303.837 28.0033C305.088 28.0033 305.992 28.4218 306.55 29.2586C307.117 30.0955 307.4 31.2409 307.4 32.6948C307.4 34.1657 307.117 35.3195 306.55 36.1564C305.992 36.9932 305.088 37.4117 303.837 37.4117C302.586 37.4117 301.677 36.9932 301.111 36.1564C300.553 35.3195 300.274 34.1657 300.274 32.6948ZM305.27 32.6948C305.27 31.8411 305.177 31.1859 304.991 30.7295C304.805 30.2646 304.42 30.0321 303.837 30.0321C303.254 30.0321 302.869 30.2646 302.683 30.7295C302.497 31.1859 302.404 31.8411 302.404 32.6948C302.404 33.2696 302.438 33.7472 302.506 34.1276C302.573 34.4996 302.708 34.8039 302.911 35.0406C303.123 35.2688 303.431 35.3829 303.837 35.3829C304.243 35.3829 304.547 35.2688 304.75 35.0406C304.961 34.8039 305.101 34.4996 305.168 34.1276C305.236 33.7472 305.27 33.2696 305.27 32.6948ZM309.015 35.7126C309.302 35.4844 309.433 35.3787 309.408 35.3956C310.236 34.7109 310.887 34.1488 311.36 33.7092C311.842 33.2696 312.248 32.8089 312.578 32.3271C312.907 31.8453 313.072 31.3761 313.072 30.9197C313.072 30.5731 312.992 30.3026 312.831 30.1082C312.671 29.9137 312.43 29.8165 312.108 29.8165C311.787 29.8165 311.534 29.9391 311.348 30.1843C311.17 30.4209 311.081 30.7591 311.081 31.1986H308.989C309.006 30.4801 309.158 29.8799 309.446 29.3981C309.742 28.9163 310.126 28.5613 310.6 28.333C311.081 28.1048 311.614 27.9907 312.197 27.9907C313.203 27.9907 313.96 28.2485 314.467 28.7641C314.982 29.2798 315.24 29.9518 315.24 30.7802C315.24 31.6847 314.932 32.5258 314.315 33.3035C313.698 34.0727 312.911 34.825 311.956 35.5604H315.38V37.3229H309.015V35.7126ZM323.397 30.0828H319.441V31.8326C319.61 31.6466 319.847 31.4945 320.151 31.3761C320.455 31.2578 320.785 31.1986 321.14 31.1986C321.774 31.1986 322.298 31.3423 322.712 31.6297C323.135 31.9171 323.444 32.2891 323.638 32.7455C323.832 33.202 323.93 33.6965 323.93 34.2291C323.93 35.2181 323.651 36.0042 323.093 36.5875C322.535 37.1623 321.749 37.4497 320.734 37.4497C320.058 37.4497 319.471 37.3356 318.972 37.1074C318.473 36.8707 318.088 36.5452 317.818 36.131C317.547 35.7168 317.4 35.2392 317.374 34.6982H319.492C319.542 34.9603 319.665 35.18 319.859 35.3576C320.054 35.5266 320.32 35.6112 320.658 35.6112C321.056 35.6112 321.351 35.4844 321.546 35.2308C321.74 34.9772 321.837 34.639 321.837 34.2164C321.837 33.8022 321.736 33.4852 321.533 33.2654C321.33 33.0456 321.034 32.9357 320.646 32.9357C320.358 32.9357 320.121 33.0076 319.935 33.1513C319.749 33.2865 319.627 33.4683 319.568 33.6965H317.476V28.1809H323.397V30.0828Z" fill="black"/>
<path d="M430.74 14.7102C431.334 14.6036 431.684 14.4971 431.73 13.934L432.643 6.67432C432.688 6.1112 432.399 6.00467 431.806 5.89813L431.851 5.57852H434.91L434.88 5.89813C434.256 6.00467 433.952 6.1112 433.891 6.67432L432.993 13.934C432.932 14.4058 433.115 14.6797 433.891 14.6341L436.022 14.5428C436.919 14.4971 437.391 14.0862 437.726 13.5992L438.03 13.1426H438.335L437.939 14.1014C437.787 14.4058 437.68 14.6797 437.665 15.0298H430.695L430.74 14.7102ZM440.335 15.1211C439.818 15.1211 439.361 14.8015 439.453 14.071L440.137 9.30728C440.229 8.71372 439.757 8.57675 439.285 8.82026L439.346 8.51587C439.666 8.18104 440.107 8.05929 440.427 8.05929C440.914 8.05929 441.37 8.36368 441.264 9.10943L440.594 13.8275C440.503 14.4362 440.974 14.6341 441.477 14.3601L441.416 14.6645C441.066 14.9993 440.655 15.1211 440.335 15.1211ZM440.198 5.60896C440.198 5.1676 440.533 4.84799 440.944 4.84799C441.37 4.84799 441.705 5.1676 441.705 5.60896C441.705 6.05032 441.37 6.36993 440.944 6.36993C440.533 6.36993 440.198 6.05032 440.198 5.60896ZM445.351 15.1211C443.707 15.1211 442.505 13.9035 442.505 12.062C442.505 10.2661 443.677 7.99841 446.036 7.99841C447.421 7.99841 448.121 8.74416 448.121 9.74864C448.121 10.7988 447.36 11.575 445.077 11.9555L444.255 12.0924C443.874 12.1533 443.783 12.4881 443.981 12.9752C444.301 13.7818 444.94 14.3601 445.883 14.3601C446.477 14.3601 447.162 14.1318 447.603 13.6296L447.816 13.8731C447.405 14.3906 446.614 15.1211 445.351 15.1211ZM443.692 11.2249C443.692 11.6815 443.981 11.788 444.331 11.7272L444.833 11.6511C446.751 11.3315 446.979 10.4944 446.979 9.77908C446.979 8.91158 446.599 8.34846 445.792 8.34846C444.62 8.34846 443.692 9.55079 443.692 11.2249ZM451.163 15.1211C450.113 15.1211 449.337 14.4667 449.565 12.7012L450.007 9.33772C450.098 8.71372 449.611 8.57675 449.139 8.82026L449.2 8.51587C449.52 8.18104 449.885 8.05929 450.22 8.05929C450.722 8.05929 451.209 8.36368 451.102 9.26162L450.707 12.3359C450.524 13.797 450.95 14.3145 451.757 14.3145C453.035 14.3145 453.964 13.036 454.207 10.814L454.375 9.33772C454.451 8.71372 453.964 8.57675 453.492 8.82026L453.553 8.51587C453.872 8.18104 454.238 8.05929 454.572 8.05929C455.075 8.05929 455.592 8.36368 455.455 9.41382L454.892 13.8275C454.816 14.4362 455.273 14.6341 455.775 14.3601L455.714 14.6645C455.364 14.9993 454.953 15.1211 454.633 15.1211C454.116 15.1211 453.674 14.8472 453.781 13.8883C453.888 12.8077 453.142 15.1211 451.163 15.1211Z" fill="black"/>
<path d="M384.69 32.6948C384.69 31.2409 384.969 30.0955 385.527 29.2586C386.093 28.4218 387.002 28.0033 388.253 28.0033C389.504 28.0033 390.408 28.4218 390.966 29.2586C391.533 30.0955 391.816 31.2409 391.816 32.6948C391.816 34.1657 391.533 35.3195 390.966 36.1564C390.408 36.9932 389.504 37.4117 388.253 37.4117C387.002 37.4117 386.093 36.9932 385.527 36.1564C384.969 35.3195 384.69 34.1657 384.69 32.6948ZM389.686 32.6948C389.686 31.8411 389.593 31.1859 389.407 30.7295C389.221 30.2646 388.836 30.0321 388.253 30.0321C387.669 30.0321 387.285 30.2646 387.099 30.7295C386.913 31.1859 386.82 31.8411 386.82 32.6948C386.82 33.2696 386.854 33.7472 386.921 34.1276C386.989 34.4996 387.124 34.8039 387.327 35.0406C387.538 35.2688 387.847 35.3829 388.253 35.3829C388.658 35.3829 388.963 35.2688 389.166 35.0406C389.377 34.8039 389.516 34.4996 389.584 34.1276C389.652 33.7472 389.686 33.2696 389.686 32.6948ZM393.506 32.6948C393.506 31.2409 393.785 30.0955 394.343 29.2586C394.91 28.4218 395.818 28.0033 397.069 28.0033C398.321 28.0033 399.225 28.4218 399.783 29.2586C400.349 30.0955 400.632 31.2409 400.632 32.6948C400.632 34.1657 400.349 35.3195 399.783 36.1564C399.225 36.9932 398.321 37.4117 397.069 37.4117C395.818 37.4117 394.91 36.9932 394.343 36.1564C393.785 35.3195 393.506 34.1657 393.506 32.6948ZM398.502 32.6948C398.502 31.8411 398.409 31.1859 398.223 30.7295C398.037 30.2646 397.653 30.0321 397.069 30.0321C396.486 30.0321 396.102 30.2646 395.916 30.7295C395.73 31.1859 395.637 31.8411 395.637 32.6948C395.637 33.2696 395.67 33.7472 395.738 34.1276C395.806 34.4996 395.941 34.8039 396.144 35.0406C396.355 35.2688 396.664 35.3829 397.069 35.3829C397.475 35.3829 397.78 35.2688 397.982 35.0406C398.194 34.8039 398.333 34.4996 398.401 34.1276C398.468 33.7472 398.502 33.2696 398.502 32.6948ZM402.247 35.7126C402.535 35.4844 402.666 35.3787 402.64 35.3956C403.469 34.7109 404.12 34.1488 404.593 33.7092C405.075 33.2696 405.48 32.8089 405.81 32.3271C406.14 31.8453 406.305 31.3761 406.305 30.9197C406.305 30.5731 406.224 30.3026 406.064 30.1082C405.903 29.9137 405.662 29.8165 405.341 29.8165C405.02 29.8165 404.766 29.9391 404.58 30.1843C404.403 30.4209 404.314 30.7591 404.314 31.1986H402.222C402.239 30.4801 402.391 29.8799 402.678 29.3981C402.974 28.9163 403.359 28.5613 403.832 28.333C404.314 28.1048 404.846 27.9907 405.43 27.9907C406.436 27.9907 407.192 28.2485 407.699 28.7641C408.215 29.2798 408.473 29.9518 408.473 30.7802C408.473 31.6847 408.164 32.5258 407.547 33.3035C406.93 34.0727 406.144 34.825 405.189 35.5604H408.612V37.3229H402.247V35.7126ZM410.188 30.8056C410.222 29.9011 410.518 29.2037 411.076 28.7134C411.634 28.2231 412.39 27.978 413.346 27.978C413.98 27.978 414.521 28.0879 414.969 28.3077C415.425 28.5274 415.767 28.8275 415.996 29.2079C416.232 29.5883 416.351 30.0152 416.351 30.4886C416.351 31.0465 416.211 31.5029 415.932 31.858C415.653 32.2045 415.328 32.4412 414.956 32.568V32.6187C415.438 32.7794 415.818 33.0456 416.097 33.4176C416.376 33.7895 416.515 34.2671 416.515 34.8504C416.515 35.3745 416.393 35.8394 416.148 36.2451C415.911 36.6424 415.56 36.9552 415.095 37.1834C414.639 37.4117 414.094 37.5258 413.46 37.5258C412.445 37.5258 411.634 37.2764 411.025 36.7777C410.425 36.2789 410.108 35.5266 410.074 34.5207H412.179C412.187 34.8926 412.293 35.1885 412.496 35.4083C412.699 35.6196 412.995 35.7253 413.384 35.7253C413.713 35.7253 413.967 35.6323 414.144 35.4463C414.33 35.2519 414.423 34.9983 414.423 34.6855C414.423 34.2798 414.292 33.9882 414.03 33.8106C413.777 33.6247 413.367 33.5317 412.8 33.5317H412.395V31.7692H412.8C413.231 31.7692 413.578 31.6974 413.84 31.5537C414.111 31.4015 414.246 31.1352 414.246 30.7548C414.246 30.4505 414.161 30.2138 413.992 30.0448C413.823 29.8757 413.591 29.7912 413.295 29.7912C412.974 29.7912 412.733 29.8884 412.572 30.0828C412.42 30.2772 412.331 30.5181 412.306 30.8056H410.188ZM424.243 29.8165L421.061 37.4497H418.842L422.062 30.0575H418.119V28.2062H424.243V29.8165ZM434.908 28.5486V30.2857H431.281V32.1623H433.995V33.8487H431.281V37.4497H429.113V28.5486H434.908ZM440.802 37.5385C439.965 37.5385 439.196 37.344 438.495 36.9552C437.801 36.5664 437.248 36.0254 436.834 35.3322C436.428 34.6306 436.225 33.8445 436.225 32.9738C436.225 32.1031 436.428 31.3212 436.834 30.628C437.248 29.9349 437.801 29.3939 438.495 29.005C439.196 28.6162 439.965 28.4218 440.802 28.4218C441.639 28.4218 442.404 28.6162 443.097 29.005C443.799 29.3939 444.348 29.9349 444.746 30.628C445.151 31.3212 445.354 32.1031 445.354 32.9738C445.354 33.8445 445.151 34.6306 444.746 35.3322C444.34 36.0254 443.79 36.5664 443.097 36.9552C442.404 37.344 441.639 37.5385 440.802 37.5385ZM440.802 35.5604C441.512 35.5604 442.079 35.3237 442.501 34.8504C442.932 34.377 443.148 33.7515 443.148 32.9738C443.148 32.1876 442.932 31.5621 442.501 31.0972C442.079 30.6238 441.512 30.3871 440.802 30.3871C440.084 30.3871 439.509 30.6196 439.078 31.0845C438.655 31.5494 438.444 32.1792 438.444 32.9738C438.444 33.7599 438.655 34.3897 439.078 34.8631C439.509 35.328 440.084 35.5604 440.802 35.5604ZM449.236 28.5486V33.874C449.236 34.4066 449.367 34.8166 449.629 35.104C449.891 35.3914 450.276 35.5351 450.783 35.5351C451.29 35.5351 451.679 35.3914 451.949 35.104C452.22 34.8166 452.355 34.4066 452.355 33.874V28.5486H454.523V33.8614C454.523 34.656 454.354 35.328 454.016 35.8774C453.678 36.4269 453.222 36.8411 452.647 37.12C452.08 37.399 451.446 37.5385 450.745 37.5385C450.043 37.5385 449.413 37.4032 448.856 37.1327C448.306 36.8538 447.871 36.4396 447.55 35.8901C447.228 35.3322 447.068 34.656 447.068 33.8614V28.5486H449.236ZM466.672 28.5486V37.4497H464.503V32.1116L462.513 37.4497H460.763L458.759 32.0989V37.4497H456.591V28.5486H459.152L461.65 34.7109L464.123 28.5486H466.672ZM474.165 32.885C474.68 32.9949 475.095 33.2527 475.407 33.6585C475.72 34.0558 475.877 34.5122 475.877 35.0279C475.877 35.7718 475.615 36.3635 475.09 36.803C474.575 37.2342 473.852 37.4497 472.922 37.4497H468.776V28.5486H472.783C473.687 28.5486 474.393 28.7557 474.9 29.1699C475.416 29.5841 475.674 30.1462 475.674 30.8563C475.674 31.3804 475.534 31.8157 475.255 32.1623C474.985 32.5089 474.621 32.7498 474.165 32.885ZM470.944 32.1496H472.364C472.719 32.1496 472.99 32.0735 473.176 31.9214C473.37 31.7608 473.467 31.5283 473.467 31.224C473.467 30.9197 473.37 30.6872 473.176 30.5266C472.99 30.366 472.719 30.2857 472.364 30.2857H470.944V32.1496ZM472.542 35.6999C472.905 35.6999 473.184 35.6196 473.379 35.459C473.582 35.2899 473.683 35.049 473.683 34.7363C473.683 34.4235 473.577 34.1783 473.366 34.0008C473.163 33.8233 472.88 33.7346 472.516 33.7346H470.944V35.6999H472.542ZM483.22 35.8774H479.898L479.366 37.4497H477.096L480.317 28.5486H482.827L486.048 37.4497H483.753L483.22 35.8774ZM482.662 34.2037L481.559 30.945L480.469 34.2037H482.662ZM495.536 37.4497H493.368L489.742 31.9594V37.4497H487.573V28.5486H489.742L493.368 34.0642V28.5486H495.536V37.4497ZM506.451 35.4463L505.043 39.0854H503.661L504.397 35.4463H506.451Z" fill="black"/>
<path d="M405.295 49.8966C405.295 49.0175 405.486 48.2356 405.866 47.5509C406.246 46.8577 406.775 46.3209 407.451 45.9406C408.136 45.5517 408.909 45.3573 409.771 45.3573C410.828 45.3573 411.732 45.6362 412.485 46.1941C413.237 46.7521 413.74 47.5128 413.994 48.4765H411.61C411.432 48.1046 411.179 47.8214 410.849 47.627C410.528 47.4325 410.16 47.3353 409.746 47.3353C409.078 47.3353 408.537 47.5678 408.123 48.0327C407.709 48.4976 407.502 49.1189 407.502 49.8966C407.502 50.6743 407.709 51.2956 408.123 51.7605C408.537 52.2255 409.078 52.4579 409.746 52.4579C410.16 52.4579 410.528 52.3607 410.849 52.1663C411.179 51.9719 411.432 51.6887 411.61 51.3167H413.994C413.74 52.2804 413.237 53.0412 412.485 53.5991C411.732 54.1485 410.828 54.4233 409.771 54.4233C408.909 54.4233 408.136 54.2331 407.451 53.8527C406.775 53.4638 406.246 52.9271 405.866 52.2424C405.486 51.5577 405.295 50.7757 405.295 49.8966ZM421.408 52.7876H418.086L417.553 54.3599H415.283L418.504 45.4587H421.015L424.235 54.3599H421.94L421.408 52.7876ZM420.85 51.1139L419.747 47.8552L418.656 51.1139H420.85ZM435.841 45.4587V54.3599H433.673V49.0217L431.682 54.3599H429.932L427.929 49.009V54.3599H425.761V45.4587H428.322L430.82 51.6211L433.292 45.4587H435.841ZM440.114 47.1958V48.9964H443.017V50.6701H440.114V52.6227H443.398V54.3599H437.945V45.4587H443.398V47.1958H440.114ZM449.89 54.3599L448.039 50.9997H447.519V54.3599H445.351V45.4587H448.99C449.691 45.4587 450.287 45.5813 450.777 45.8264C451.276 46.0716 451.648 46.4097 451.893 46.8408C452.138 47.2635 452.261 47.7368 452.261 48.2609C452.261 48.8527 452.092 49.381 451.754 49.8459C451.424 50.3108 450.934 50.6405 450.283 50.8349L452.337 54.3599H449.89ZM447.519 49.4655H448.863C449.26 49.4655 449.556 49.3683 449.75 49.1739C449.953 48.9795 450.055 48.7047 450.055 48.3497C450.055 48.0116 449.953 47.7453 449.75 47.5509C449.556 47.3565 449.26 47.2592 448.863 47.2592H447.519V49.4655ZM458.377 54.4486C457.54 54.4486 456.771 54.2542 456.069 53.8654C455.376 53.4765 454.822 52.9355 454.408 52.2424C454.002 51.5407 453.8 50.7546 453.8 49.8839C453.8 49.0133 454.002 48.2314 454.408 47.5382C454.822 46.845 455.376 46.304 456.069 45.9152C456.771 45.5264 457.54 45.3319 458.377 45.3319C459.214 45.3319 459.979 45.5264 460.672 45.9152C461.374 46.304 461.923 46.845 462.32 47.5382C462.726 48.2314 462.929 49.0133 462.929 49.8839C462.929 50.7546 462.726 51.5407 462.32 52.2424C461.915 52.9355 461.365 53.4765 460.672 53.8654C459.979 54.2542 459.214 54.4486 458.377 54.4486ZM458.377 52.4706C459.087 52.4706 459.653 52.2339 460.076 51.7605C460.507 51.2872 460.723 50.6616 460.723 49.8839C460.723 49.0978 460.507 48.4723 460.076 48.0073C459.653 47.534 459.087 47.2973 458.377 47.2973C457.658 47.2973 457.084 47.5297 456.653 47.9947C456.23 48.4596 456.019 49.0893 456.019 49.8839C456.019 50.6701 456.23 51.2998 456.653 51.7732C457.084 52.2381 457.658 52.4706 458.377 52.4706ZM466.811 45.4587V50.7842C466.811 51.3167 466.942 51.7267 467.204 52.0141C467.466 52.3015 467.85 52.4452 468.358 52.4452C468.865 52.4452 469.254 52.3015 469.524 52.0141C469.795 51.7267 469.93 51.3167 469.93 50.7842V45.4587H472.098V50.7715C472.098 51.5661 471.929 52.2381 471.591 52.7876C471.253 53.337 470.796 53.7512 470.221 54.0302C469.655 54.3091 469.021 54.4486 468.319 54.4486C467.618 54.4486 466.988 54.3134 466.43 54.0429C465.881 53.7639 465.445 53.3497 465.124 52.8003C464.803 52.2424 464.642 51.5661 464.642 50.7715V45.4587H466.811ZM482.129 54.3599H479.96L476.334 48.8696V54.3599H474.166V45.4587H476.334L479.96 50.9744V45.4587H482.129V54.3599Z" fill="black"/>
<path d="M40.7761 13.7202C41.3363 13.617 41.6459 13.5138 41.7197 12.9682L42.5895 5.93543C42.6633 5.38991 42.3536 5.2867 41.8081 5.18349L41.8523 4.87387H43.6953L47.9121 12.0246L48.664 5.93543C48.7377 5.38991 48.4428 5.2867 47.9121 5.18349L47.9563 4.87387H50.1384L50.0941 5.18349C49.5191 5.2867 49.239 5.38991 49.1653 5.93543L48.1627 14.0298H47.6762L43.0319 6.24505L42.2062 12.9682C42.1325 13.5138 42.3979 13.617 42.9286 13.7202L42.8992 14.0298H40.7318L40.7761 13.7202ZM53.0752 14.1182C51.4386 14.1182 50.2149 12.9387 50.2149 11.1105C50.2149 9.2233 51.5418 7.21814 53.6944 7.21814C55.331 7.21814 56.54 8.39765 56.54 10.2259C56.54 12.1131 55.2278 14.1182 53.0752 14.1182ZM51.4533 10.6535C51.4533 12.0983 51.9989 13.7644 53.3553 13.7644C54.6822 13.7644 55.3162 12.2163 55.3162 10.6829C55.3162 9.23804 54.7707 7.55725 53.4143 7.55725C52.0873 7.55725 51.4533 9.10535 51.4533 10.6535ZM59.3461 14.1035C58.432 14.1035 57.8275 13.5875 57.9749 12.3637L58.4615 8.2797C58.491 7.89636 58.3878 7.82264 58.1961 7.82264H57.5326L57.5769 7.49827C58.3583 7.18865 58.9038 6.76108 59.3609 5.95017C59.4051 5.86171 59.4788 5.83222 59.5525 5.83222H59.6705C59.7589 5.83222 59.8179 5.8912 59.8032 5.97966L59.6705 6.99698C59.6263 7.29186 59.7295 7.38032 60.3045 7.38032H61.366L61.2923 7.9111L60.2602 7.85212C59.6705 7.82264 59.5673 7.94059 59.523 8.30918L59.0955 12.2016C58.9923 13.0714 59.0807 13.617 59.7589 13.617C60.0538 13.617 60.3045 13.5138 60.5551 13.3516L60.6583 13.558C60.3634 13.8529 59.9801 14.1035 59.3461 14.1035ZM62.9246 8.5156C62.9983 7.94059 62.5413 7.77841 62.0842 8.01431L62.1432 7.71943C62.4528 7.39507 62.8214 7.27712 63.1458 7.27712C63.6323 7.27712 64.0156 7.52776 64.0156 8.41239C64.0156 8.76624 64.1189 8.78099 64.2663 8.48611C64.5464 7.92584 65.1952 7.21814 66.124 7.21814C66.6695 7.21814 67.0086 7.48353 67.0086 7.9111C67.0086 8.26495 66.758 8.6188 66.1535 8.8547H66.1388C66.1682 8.33867 65.9323 8.04379 65.5195 8.04379C64.6054 8.04379 63.8682 9.25279 63.6323 11.2137L63.2785 14.0298H62.2316L62.9246 8.5156ZM69.9184 14.1182C68.326 14.1182 67.1613 12.9387 67.1613 11.1547C67.1613 9.41497 68.2965 7.21814 70.5818 7.21814C71.9235 7.21814 72.6017 7.94059 72.6017 8.91368C72.6017 9.931 71.8645 10.6829 69.653 11.0515L68.8568 11.1842C68.4882 11.2432 68.3997 11.5676 68.5914 12.0394C68.901 12.8208 69.5203 13.3811 70.4344 13.3811C71.0094 13.3811 71.6729 13.1599 72.1004 12.6734L72.3069 12.9093C71.9088 13.4105 71.1421 14.1182 69.9184 14.1182ZM68.3113 10.3438C68.3113 10.7861 68.5914 10.8894 68.9305 10.8304L69.4171 10.7567C71.2748 10.447 71.4959 9.63613 71.4959 8.94317C71.4959 8.10277 71.1274 7.55725 70.3459 7.55725C69.2107 7.55725 68.3113 8.72201 68.3113 10.3438ZM78.0495 14.1035C77.1353 14.1035 76.5308 13.5875 76.6783 12.3637L77.1648 8.2797C77.1943 7.89636 77.0911 7.82264 76.8994 7.82264H76.236L76.2802 7.49827C77.0616 7.18865 77.6071 6.76108 78.0642 5.95017C78.1084 5.86171 78.1822 5.83222 78.2559 5.83222H78.3738C78.4623 5.83222 78.5213 5.8912 78.5065 5.97966L78.3738 6.99698C78.3296 7.29186 78.4328 7.38032 79.0078 7.38032H80.0694L79.9956 7.9111L78.9636 7.85212C78.3738 7.82264 78.2706 7.94059 78.2264 8.30918L77.7988 12.2016C77.6956 13.0714 77.7841 13.617 78.4623 13.617C78.7572 13.617 79.0078 13.5138 79.2585 13.3516L79.3617 13.558C79.0668 13.8529 78.6834 14.1035 78.0495 14.1035ZM85.8348 14.1182C85.3335 14.1182 84.8764 13.8086 84.9649 13.1009L85.3925 9.931C85.5841 8.50085 85.1566 7.99956 84.3604 7.99956C83.2399 7.99956 82.311 9.03163 82.0456 11.1253L81.677 14.0298H80.6302L81.6475 6.08287C81.7655 5.13926 81.4411 4.93285 80.7924 4.93285L80.8514 4.63797C81.736 4.63797 82.4289 4.47579 82.945 4.3431L82.4142 8.47137C82.2815 9.4592 83.0924 7.21814 84.9649 7.21814C85.9675 7.21814 86.7047 7.85212 86.4835 9.56241L86.0559 12.8355C85.9675 13.4695 86.4393 13.6464 86.9258 13.3811L86.8668 13.6759C86.5425 14.0003 86.1444 14.1182 85.8348 14.1182ZM91.1363 14.1772C90.5269 14.1772 90.006 14.0593 89.5735 13.8234C89.1508 13.5776 88.8265 13.2336 88.6004 12.7913C88.3841 12.3392 88.276 11.8084 88.276 11.199C88.276 10.5699 88.3645 9.95066 88.5414 9.34125C88.7282 8.72201 88.9936 8.16175 89.3376 7.66046C89.6816 7.14934 90.0944 6.74142 90.5761 6.43672C91.0675 6.13201 91.618 5.97966 92.2274 5.97966C92.9744 5.97966 93.5347 6.14184 93.9082 6.46621C94.2915 6.79057 94.4832 7.24271 94.4832 7.82264C94.4832 8.20598 94.3947 8.56966 94.2178 8.91368C94.0409 9.24787 93.7656 9.54275 93.3921 9.79831C93.0186 10.0539 92.5419 10.2554 91.962 10.4028C91.3821 10.5404 90.6842 10.6092 89.8684 10.6092H89.6177C89.6079 10.6977 89.5981 10.7911 89.5882 10.8894C89.5882 10.9876 89.5882 11.0761 89.5882 11.1547C89.5882 11.7543 89.7357 12.231 90.0305 12.5849C90.3254 12.9289 90.7726 13.1009 91.3722 13.1009C91.7457 13.1009 92.0996 13.0469 92.4338 12.9387C92.768 12.8306 93.1317 12.6832 93.5248 12.4964V13.6022C93.1513 13.7693 92.7827 13.9069 92.419 14.015C92.0652 14.1232 91.6376 14.1772 91.1363 14.1772ZM89.9126 9.56241C90.5023 9.56241 91.0479 9.51326 91.5492 9.41497C92.0504 9.30685 92.4534 9.13484 92.7581 8.89894C93.0629 8.65321 93.2152 8.32884 93.2152 7.92584C93.2152 7.67028 93.1267 7.46387 92.9498 7.3066C92.7827 7.13951 92.5173 7.05596 92.1536 7.05596C91.8391 7.05596 91.5295 7.15425 91.2248 7.35084C90.9201 7.54742 90.6449 7.83247 90.3991 8.20598C90.1534 8.57949 89.9568 9.03163 89.8094 9.56241H89.9126ZM92.4633 5.09503C92.2765 4.90828 92.075 4.6822 91.8588 4.41682C91.6524 4.15143 91.4558 3.88112 91.269 3.60591C91.0823 3.33069 90.9397 3.08987 90.8414 2.88346V2.73602H92.2274C92.306 2.97192 92.3994 3.21765 92.5075 3.47321C92.6156 3.72877 92.7336 3.97942 92.8614 4.22515C92.999 4.46105 93.1317 4.69203 93.2594 4.91811V5.09503H92.4633ZM104.303 14.1182C103.802 14.1182 103.345 13.8086 103.448 13.1009L103.861 9.931C104.052 8.5156 103.654 7.99956 102.873 7.99956C101.973 7.99956 101.251 8.9874 100.927 11.3759L100.573 14.0298H99.5259L100.057 9.931C100.234 8.5156 99.806 7.99956 99.0394 7.99956C98.1252 7.99956 97.3881 9.23804 97.1522 11.1253L96.7688 14.0298H95.722L96.415 8.5156C96.4887 7.9111 96.0316 7.77841 95.5746 8.01431L95.6335 7.71943C95.9432 7.39507 96.3118 7.27712 96.6361 7.27712C97.1227 7.27712 97.506 7.52776 97.506 8.41239C97.506 9.54766 97.9188 7.21814 99.6733 7.21814C100.381 7.21814 101.059 7.58674 101.192 8.54508C101.325 9.47395 101.708 7.21814 103.477 7.21814C104.436 7.21814 105.188 7.85212 104.952 9.56241L104.524 12.8355C104.436 13.4695 104.907 13.6464 105.394 13.3811L105.335 13.6759C105.011 14.0003 104.613 14.1182 104.303 14.1182ZM109.139 14.1182C107.547 14.1182 106.382 12.9387 106.382 11.1547C106.382 9.41497 107.517 7.21814 109.803 7.21814C111.144 7.21814 111.823 7.94059 111.823 8.91368C111.823 9.931 111.085 10.6829 108.874 11.0515L108.078 11.1842C107.709 11.2432 107.621 11.5676 107.812 12.0394C108.122 12.8208 108.741 13.3811 109.655 13.3811C110.23 13.3811 110.894 13.1599 111.321 12.6734L111.528 12.9093C111.13 13.4105 110.363 14.1182 109.139 14.1182ZM107.532 10.3438C107.532 10.7861 107.812 10.8894 108.151 10.8304L108.638 10.7567C110.496 10.447 110.717 9.63613 110.717 8.94317C110.717 8.10277 110.348 7.55725 109.567 7.55725C108.432 7.55725 107.532 8.72201 107.532 10.3438Z" fill="black"/>
<path d="M9.31035 30.6542V32.4501H12.2065V34.1195H9.31035V36.0671H12.586V37.7998H7.14769V28.9215H12.586V30.6542H9.31035ZM11.2833 27.1383L8.23535 28.4156V26.9233L11.2833 25.4562V27.1383ZM16.6978 36.1304H19.5308V37.7998H14.5352V28.9215H16.6978V36.1304ZM23.2702 30.6542V32.4501H26.1664V34.1195H23.2702V36.0671H26.5458V37.7998H21.1075V28.9215H26.5458V30.6542H23.2702ZM25.2431 27.1383L22.1952 28.4156V26.9233L25.2431 25.4562V27.1383ZM34.3885 31.7292C34.2283 31.4341 33.9965 31.2107 33.6929 31.0589C33.3978 30.8987 33.0479 30.8186 32.6432 30.8186C31.9434 30.8186 31.3827 31.0505 30.9612 31.5142C30.5396 31.9695 30.3288 32.5808 30.3288 33.348C30.3288 34.1659 30.548 34.8067 30.9865 35.2704C31.4333 35.7257 32.0446 35.9533 32.8203 35.9533C33.3515 35.9533 33.7983 35.8184 34.1609 35.5486C34.5319 35.2788 34.8017 34.891 34.9703 34.3851H32.2259V32.7915H36.9306V34.8024C36.7704 35.342 36.4964 35.8437 36.1086 36.3074C35.7291 36.7712 35.2443 37.1464 34.6541 37.433C34.0639 37.7197 33.3978 37.863 32.6559 37.863C31.779 37.863 30.9949 37.6733 30.3035 37.2939C29.6206 36.9061 29.0852 36.3707 28.6973 35.6877C28.3179 35.0048 28.1282 34.2249 28.1282 33.348C28.1282 32.4711 28.3179 31.6912 28.6973 31.0083C29.0852 30.3169 29.6206 29.7815 30.3035 29.4021C30.9865 29.0143 31.7664 28.8203 32.6432 28.8203C33.7056 28.8203 34.5993 29.0775 35.3244 29.5918C36.058 30.1061 36.5428 30.8186 36.7788 31.7292H34.3885ZM44.2005 36.2316H40.887L40.3558 37.7998H38.0919L41.3043 28.9215H43.8085L47.0208 37.7998H44.7317L44.2005 36.2316ZM43.644 34.5621L42.5437 31.3118L41.4561 34.5621H43.644ZM56.4861 37.7998H54.3234L50.7063 32.3236V37.7998H48.5437V28.9215H50.7063L54.3234 34.423V28.9215H56.4861V37.7998ZM58.2322 33.348C58.2322 32.4711 58.4219 31.6912 58.8013 31.0083C59.1807 30.3169 59.7077 29.7815 60.3822 29.4021C61.0651 29.0143 61.8366 28.8203 62.6966 28.8203C63.7505 28.8203 64.6527 29.0986 65.4031 29.6551C66.1535 30.2115 66.6551 30.9704 66.9081 31.9315H64.5304C64.3534 31.5606 64.1004 31.2781 63.7716 31.0842C63.4512 30.8903 63.0844 30.7933 62.6713 30.7933C62.0052 30.7933 61.4656 31.0252 61.0525 31.4889C60.6393 31.9526 60.4328 32.5723 60.4328 33.348C60.4328 34.1237 60.6393 34.7434 61.0525 35.2071C61.4656 35.6709 62.0052 35.9027 62.6713 35.9027C63.0844 35.9027 63.4512 35.8058 63.7716 35.6119C64.1004 35.4179 64.3534 35.1355 64.5304 34.7645H66.9081C66.6551 35.7257 66.1535 36.4845 65.4031 37.041C64.6527 37.589 63.7505 37.863 62.6966 37.863C61.8366 37.863 61.0651 37.6733 60.3822 37.2939C59.7077 36.9061 59.1807 36.3707 58.8013 35.6877C58.4219 35.0048 58.2322 34.2249 58.2322 33.348ZM70.9403 30.6542V32.4501H73.8365V34.1195H70.9403V36.0671H74.2159V37.7998H68.7777V28.9215H74.2159V30.6542H70.9403ZM81.5531 28.9215V37.7998H79.3904V28.9215H81.5531ZM93.72 28.9215V37.7998H91.5573V32.4754L89.5717 37.7998H87.8264L85.8282 32.4627V37.7998H83.6655V28.9215H86.2202L88.7117 35.068L91.1779 28.9215H93.72ZM102.587 31.7798C102.587 32.2941 102.469 32.7662 102.232 33.1962C101.996 33.6178 101.634 33.9593 101.145 34.2207C100.656 34.482 100.049 34.6127 99.3236 34.6127H97.983V37.7998H95.8204V28.9215H99.3236C100.032 28.9215 100.631 29.0438 101.12 29.2883C101.609 29.5328 101.975 29.8701 102.22 30.3001C102.464 30.7301 102.587 31.2233 102.587 31.7798ZM99.1592 32.8927C99.5724 32.8927 99.8801 32.7958 100.082 32.6018C100.285 32.4079 100.386 32.1339 100.386 31.7798C100.386 31.4257 100.285 31.1516 100.082 30.9577C99.8801 30.7638 99.5724 30.6668 99.1592 30.6668H97.983V32.8927H99.1592ZM106.42 30.6542V32.4501H109.317V34.1195H106.42V36.0671H109.696V37.7998H104.258V28.9215H109.696V30.6542H106.42ZM108.393 27.1383L105.345 28.4156V26.9233L108.393 25.4562V27.1383ZM116.173 37.7998L114.326 34.4483H113.808V37.7998H111.645V28.9215H115.275C115.975 28.9215 116.569 29.0438 117.058 29.2883C117.556 29.5328 117.927 29.8701 118.171 30.3001C118.416 30.7216 118.538 31.1938 118.538 31.7165C118.538 32.3067 118.369 32.8337 118.032 33.2974C117.703 33.7612 117.214 34.09 116.565 34.2839L118.614 37.7998H116.173ZM113.808 32.918H115.148C115.545 32.918 115.84 32.8211 116.034 32.6271C116.236 32.4332 116.337 32.1592 116.337 31.8051C116.337 31.4678 116.236 31.2022 116.034 31.0083C115.84 30.8144 115.545 30.7174 115.148 30.7174H113.808V32.918ZM122.603 28.9215V37.7998H120.441V28.9215H122.603ZM130.242 36.2316H126.929L126.398 37.7998H124.134L127.346 28.9215H129.85L133.063 37.7998H130.774L130.242 36.2316ZM129.686 34.5621L128.586 31.3118L127.498 34.5621H129.686ZM136.748 36.1304H139.581V37.7998H134.586V28.9215H136.748V36.1304ZM143.321 30.6542V32.4501H146.217V34.1195H143.321V36.0671H146.596V37.7998H141.158V28.9215H146.596V30.6542H143.321Z" fill="black"/>
</svg>
