<svg width="791" height="28" viewBox="0 0 791 28" fill="#830d0d" xmlns="http://www.w3.org/2000/svg">
<g clip-path="url(#clip0_16_62)">
<path d="M516.676 12.4854C512.138 12.4854 507.569 12.691 503.062 12.1376C501.465 11.932 499.805 11.6948 498.382 10.9359C498.319 10.8884 498.24 10.841 498.177 10.7936C498.113 10.7461 498.034 10.6987 497.971 10.6671L497.718 10.5248L497.592 10.4457L497.465 10.3825L497.212 10.2402L496.959 10.1137L496.833 10.0504L496.706 9.98718C496.627 9.93975 496.532 9.90812 496.437 9.86069L496.168 9.75001C495.821 9.6077 495.457 9.4654 495.093 9.35472C494.919 9.29147 494.73 9.24403 494.54 9.1966L494.255 9.13335L494.113 9.10173L493.971 9.07011C492.99 8.86456 491.978 8.76969 490.966 8.80131C489.955 8.83293 488.943 8.95943 487.962 9.1966C485.986 9.67095 484.088 10.5406 482.381 11.6948C481.527 12.2799 480.721 12.9281 479.977 13.6397L479.93 13.6871L479.977 13.7345C480.721 14.4461 481.527 15.0943 482.381 15.6794C484.088 16.8336 485.986 17.7032 487.962 18.1776C488.958 18.4148 489.955 18.5571 490.966 18.5729C491.978 18.6045 492.975 18.5096 493.971 18.3041L494.113 18.2725L494.255 18.2408L494.54 18.1776C494.73 18.1302 494.904 18.0827 495.093 18.0195C495.457 17.9088 495.821 17.7823 496.168 17.64L496.437 17.5293C496.532 17.4977 496.611 17.4503 496.706 17.4028L496.833 17.3396L496.959 17.2763L497.212 17.1498L497.465 17.0075L497.592 16.9443L497.718 16.8652L497.971 16.7229C497.971 16.7229 498.097 16.6439 498.177 16.5964C498.256 16.549 498.319 16.4858 498.398 16.4383C499.821 15.6952 501.481 15.458 503.062 15.2524C507.569 14.699 512.154 14.9046 516.676 14.9046C576.049 14.8572 790.581 14.9046 790.581 14.9046V12.5328C790.581 12.5328 576.049 12.5645 516.676 12.5328V12.4854Z" fill="#830d0d"/>
<path d="M454.188 18.399C454.125 17.9247 454.03 17.4661 453.92 17.0076C453.809 16.549 453.651 16.1063 453.477 15.6794C453.461 15.632 453.445 15.6003 453.43 15.5529C453.224 15.7585 453.003 15.964 452.781 16.1538C452.323 16.5332 451.817 16.8811 451.279 17.1657C450.742 17.4503 450.172 17.6875 449.587 17.8456C449.002 18.0037 448.417 18.1144 447.816 18.1776C447.231 18.2251 446.631 18.2251 446.046 18.1776C445.46 18.1302 444.891 18.0353 444.322 17.9088C443.753 17.7824 443.199 17.6084 442.662 17.4187C442.124 17.2131 441.602 16.9918 441.096 16.723C440.843 16.5965 440.591 16.4542 440.353 16.2961L440.164 16.1854L439.99 16.0747C439.879 15.9956 439.752 15.9166 439.642 15.8375C439.262 15.5845 438.899 15.2999 438.535 15.0153C438.314 15.2525 438.108 15.5055 437.887 15.7585C437.476 16.2644 437.096 16.7862 436.748 17.3396C438.219 18.6994 439.579 20.1225 440.907 21.5297C441.618 22.2887 442.33 23.0318 443.057 23.7591L443.326 24.0279L443.389 24.0912L443.452 24.1544L443.579 24.2809C443.674 24.36 443.753 24.4549 443.848 24.5339L444.117 24.7711C444.48 25.0873 444.86 25.3877 445.239 25.6723C445.619 25.957 446.014 26.2099 446.425 26.4313C446.836 26.6527 447.247 26.8424 447.658 26.9847C448.069 27.127 448.48 27.2219 448.892 27.2693H449.192C449.192 27.2693 449.239 27.3009 449.271 27.3009H449.635C449.635 27.3009 449.73 27.2851 449.777 27.2693H449.919C449.919 27.2693 449.967 27.2377 449.983 27.2377H450.046C450.425 27.1428 450.789 27.0005 451.121 26.8108C451.137 26.8108 451.168 26.795 451.184 26.7792L451.248 26.7317L451.374 26.6527C451.374 26.6527 451.421 26.621 451.437 26.6052L451.501 26.5578L451.627 26.4629C451.627 26.4629 451.674 26.4313 451.69 26.4155L451.753 26.3681L451.88 26.2732L451.991 26.1625L452.054 26.1151L452.117 26.0518L452.228 25.9411L452.339 25.8147L452.386 25.7514L452.433 25.6882L452.544 25.5617L452.639 25.4352L452.686 25.3719L452.734 25.3087L452.829 25.1822L452.924 25.0399C453.161 24.6762 453.366 24.2809 453.54 23.8698C453.714 23.4587 453.856 23.016 453.967 22.5733C454.078 22.1305 454.157 21.672 454.204 21.1977C454.252 20.7391 454.268 20.2648 454.268 19.7904C454.268 19.5533 454.252 19.3161 454.236 19.0789C454.22 18.8417 454.189 18.6046 454.157 18.3832L454.188 18.399Z" fill="#830d0d"/>
<path d="M450.093 11.6316C449.714 11.4261 449.303 11.2679 448.892 11.1414C448.481 11.015 448.038 10.9359 447.595 10.9043C447.152 10.8726 446.694 10.8726 446.235 10.9043C445.777 10.9359 445.318 11.015 444.876 11.1098C443.974 11.3154 443.089 11.6474 442.251 12.0743C442.045 12.185 441.84 12.2957 441.634 12.4222L441.492 12.5171L441.35 12.6119C441.255 12.6752 441.144 12.7384 441.049 12.8017C440.828 12.9598 440.606 13.1179 440.385 13.276C440.606 13.4499 440.828 13.6081 441.049 13.7504C441.144 13.8136 441.255 13.8769 441.35 13.9401L441.492 14.035L441.634 14.1298C441.84 14.2563 442.045 14.367 442.251 14.4777C443.089 14.9046 443.974 15.2525 444.876 15.4422C445.334 15.5371 445.777 15.6161 446.235 15.6478C446.694 15.6794 447.137 15.6794 447.595 15.6478C448.038 15.6003 448.481 15.5213 448.892 15.4106C449.319 15.2999 449.714 15.126 450.093 14.9204C450.473 14.7149 450.836 14.4777 451.169 14.1931C451.501 13.9085 451.817 13.5922 452.101 13.2602C451.817 12.9123 451.516 12.5961 451.169 12.3273C450.836 12.0427 450.473 11.8055 450.093 11.6V11.6316Z" fill="#830d0d"/>
<path d="M438.535 11.5842C438.899 11.2996 439.262 11.015 439.642 10.762C439.753 10.6829 439.879 10.6039 439.99 10.5248L440.164 10.4141L440.354 10.3034C440.591 10.1611 440.844 10.0188 441.097 9.87652C441.603 9.60773 442.124 9.38636 442.662 9.18081C443.2 8.97526 443.753 8.81715 444.322 8.69065C444.891 8.56416 445.461 8.46929 446.046 8.42186C446.631 8.37442 447.216 8.37442 447.817 8.42186C448.417 8.46929 449.002 8.57997 449.587 8.7539C450.173 8.91202 450.742 9.14919 451.279 9.4338C451.817 9.71841 452.323 10.0663 452.781 10.4457C453.003 10.6355 453.224 10.841 453.43 11.0466C453.446 10.9991 453.461 10.9675 453.477 10.9201C453.651 10.4932 453.793 10.0346 453.92 9.59191C454.031 9.13338 454.125 8.67484 454.189 8.20049L454.22 8.02656V7.85264L454.252 7.75777V7.67871C454.252 7.67871 454.268 7.56803 454.268 7.50478C454.284 7.28342 454.284 7.04625 454.284 6.82488C454.284 6.36635 454.236 5.92362 454.157 5.46508C453.999 4.56382 453.714 3.69418 453.287 2.9036C452.86 2.11302 452.307 1.43312 451.643 0.927152C451.311 0.674166 450.963 0.468615 450.584 0.32631C450.204 0.184006 449.825 0.0891362 449.414 0.057513C449.208 0.0417014 449.002 0.0417014 448.797 0.057513C448.591 0.057513 448.386 0.0891362 448.18 0.136571C447.975 0.168194 447.769 0.215629 447.548 0.278876C447.5 0.278876 447.437 0.310499 447.39 0.32631C447.342 0.342122 447.295 0.357934 447.232 0.373745C447.121 0.42118 447.01 0.452803 446.9 0.500238C446.03 0.832282 445.208 1.29082 444.401 1.84423C443.595 2.38182 442.836 3.01428 442.077 3.67837C441.318 4.34246 440.575 5.05398 439.816 5.7655C439.436 6.12917 439.057 6.49284 438.662 6.84069C438.567 6.93556 438.472 7.01462 438.361 7.10949C438.266 7.20436 438.156 7.28342 438.061 7.37829L437.476 7.90007C437.144 8.20049 436.796 8.4851 436.464 8.78552C436.891 9.49704 437.365 10.1928 437.887 10.841C438.092 11.094 438.314 11.347 438.535 11.5842Z" fill="#830d0d"/>
<path d="M434.55 10.4299C433.475 11.3312 432.368 12.2325 431.246 13.0863C431.277 13.1021 431.309 13.1179 431.325 13.1337C432.21 13.7187 433.08 14.3354 433.934 14.9679C434.139 15.126 434.361 15.2999 434.582 15.458C434.677 15.5371 434.772 15.6003 434.867 15.6794C435.215 15.1576 435.578 14.6674 435.974 14.1773C436.227 13.8769 436.479 13.5764 436.732 13.2918C436.464 13.0072 436.211 12.7068 435.974 12.4064C435.468 11.7739 434.993 11.1098 434.566 10.4299H434.55Z" fill="#830d0d"/>
<path d="M471.281 10.9517C470.68 10.3351 470.095 9.5919 469.557 8.70645C469.289 8.26373 469.02 7.78938 468.767 7.28341C468.53 6.77744 468.292 6.23984 468.087 5.67063C468.039 5.54413 467.992 5.40183 467.945 5.27534H467.913L467.723 5.24371C467.597 5.2279 467.47 5.19628 467.328 5.18047C466.806 5.10141 466.269 5.03816 465.731 5.00654C465.589 5.00654 465.462 4.99073 465.32 4.97491C465.178 4.97491 465.051 4.97491 464.909 4.97491H464.087C463.533 4.97491 462.996 5.00654 462.442 5.06978C462.189 5.10141 461.936 5.13303 461.683 5.16465L461.462 5.98686C461.114 7.29922 460.64 8.51672 460.055 9.63934C459.533 10.6197 458.948 11.4577 458.315 12.1692C457.809 12.7384 457.256 13.2602 456.671 13.7029H456.703C456.703 13.7029 456.734 13.7504 456.75 13.7662C456.908 13.8769 457.05 14.0033 457.161 14.0982C457.193 14.1298 457.24 14.1615 457.272 14.1931H457.303L457.335 14.2405C457.62 14.4935 457.983 14.8414 458.331 15.2525C458.964 15.964 459.549 16.802 460.07 17.7823C460.655 18.9049 461.13 20.1224 461.478 21.4348L461.699 22.257C461.952 22.2886 462.205 22.3203 462.458 22.3519C462.996 22.4151 463.549 22.4309 464.102 22.4467C464.656 22.4467 465.193 22.4467 465.731 22.3993C466.269 22.3677 466.806 22.3044 467.328 22.2254C467.454 22.2096 467.597 22.1779 467.723 22.1621L467.913 22.1305H467.945C467.992 21.9882 468.039 21.8617 468.087 21.7352C468.292 21.166 468.53 20.6284 468.767 20.1224C469.02 19.6165 469.273 19.1421 469.557 18.6994C470.111 17.8139 470.696 17.0708 471.281 16.4541C472.467 15.2208 473.684 14.5251 474.712 14.1456C475.566 13.8294 476.309 13.7345 476.846 13.7187C476.293 13.6871 475.566 13.5922 474.712 13.276C473.684 12.9123 472.467 12.2008 471.281 10.9675V10.9517Z" fill="#830d0d"/>
<path d="M308.184 11.6948C306.477 10.5406 304.579 9.67095 302.603 9.1966C301.607 8.95943 300.595 8.81712 299.598 8.80131C298.587 8.76969 297.59 8.86456 296.61 9.07011L296.468 9.10173L296.325 9.13335L296.041 9.1966C295.851 9.24403 295.677 9.29147 295.487 9.35472C295.124 9.4654 294.76 9.59189 294.412 9.75001L294.143 9.86069C294.049 9.89231 293.97 9.93975 293.89 9.98718L293.764 10.0504L293.638 10.1137L293.385 10.2402L293.132 10.3825L293.005 10.4457L292.879 10.5248L292.626 10.6671C292.626 10.6671 292.499 10.7461 292.42 10.7936C292.357 10.841 292.294 10.8884 292.214 10.9359C290.776 11.6948 289.115 11.932 287.534 12.1376C283.028 12.691 278.443 12.4854 273.92 12.4854C214.548 12.5328 0.0158691 12.4854 0.0158691 12.4854V14.8572C0.0158691 14.8572 214.548 14.8255 273.92 14.8572C278.458 14.8572 283.028 14.6516 287.534 15.205C289.115 15.3948 290.76 15.6477 292.199 16.3909C292.278 16.4541 292.341 16.5016 292.42 16.549C292.483 16.5964 292.562 16.6439 292.626 16.6755L292.879 16.8178L293.005 16.8969L293.132 16.9601L293.385 17.1024L293.638 17.2289L293.764 17.2921L293.89 17.3554C293.985 17.4028 294.064 17.4344 294.143 17.4819L294.412 17.5926C294.76 17.7349 295.124 17.8772 295.487 17.972C295.661 18.0353 295.851 18.0827 296.041 18.1302L296.325 18.1934L296.468 18.225L296.61 18.2567C297.59 18.4622 298.602 18.5571 299.614 18.5255C300.626 18.4938 301.638 18.3673 302.618 18.1302C304.595 17.6558 306.492 16.7862 308.2 15.6319C309.054 15.0469 309.86 14.3986 310.603 13.6871L310.651 13.6397L310.603 13.5922C309.86 12.8807 309.054 12.2324 308.2 11.6474L308.184 11.6948Z" fill="#830d0d"/>
<path d="M352.045 15.0153C351.682 15.2999 351.318 15.5845 350.939 15.8375C350.828 15.9166 350.701 15.9956 350.591 16.0747L350.417 16.1854L350.227 16.2961C349.99 16.4384 349.737 16.5807 349.484 16.723C348.978 16.9918 348.456 17.2131 347.919 17.4187C347.381 17.6242 346.828 17.7824 346.258 17.9088C345.689 18.0353 345.12 18.1302 344.535 18.1776C343.95 18.2251 343.365 18.2251 342.764 18.1776C342.163 18.1302 341.578 18.0195 340.993 17.8456C340.408 17.6875 339.839 17.4503 339.301 17.1657C338.764 16.8811 338.258 16.5332 337.799 16.1538C337.578 15.964 337.356 15.7585 337.151 15.5529C337.135 15.6003 337.119 15.632 337.103 15.6794C336.93 16.1063 336.787 16.5649 336.661 17.0076C336.55 17.4661 336.455 17.9247 336.392 18.399C336.36 18.6362 336.329 18.8734 336.313 19.0947C336.297 19.3319 336.281 19.5691 336.281 19.8062C336.281 20.2806 336.281 20.7549 336.345 21.2135C336.392 21.672 336.471 22.1305 336.582 22.5891C336.692 23.0318 336.835 23.4745 337.009 23.8856C337.183 24.2967 337.388 24.692 337.625 25.0557L337.72 25.198L337.815 25.3245L337.862 25.3877L337.91 25.451L338.005 25.5775L338.115 25.704L338.163 25.7672L338.21 25.8305L338.321 25.957L338.432 26.0676L338.495 26.1309L338.558 26.1783L338.669 26.289L338.795 26.3839L338.859 26.4313C338.859 26.4313 338.906 26.4629 338.922 26.4787L339.048 26.5736L339.112 26.621C339.112 26.621 339.159 26.6527 339.175 26.6685L339.301 26.7475L339.365 26.795C339.365 26.795 339.412 26.8266 339.428 26.8266C339.776 27.0163 340.123 27.1586 340.503 27.2377H340.566C340.566 27.2377 340.614 27.2535 340.629 27.2693H340.772C340.772 27.2693 340.867 27.3009 340.914 27.3009H341.278C341.278 27.3009 341.325 27.3009 341.357 27.3009H341.657C342.068 27.2377 342.479 27.1428 342.891 26.9847C343.302 26.8424 343.713 26.6527 344.124 26.4313C344.535 26.2099 344.93 25.957 345.31 25.6723C345.689 25.3877 346.069 25.0873 346.432 24.7711L346.701 24.5339C346.796 24.4549 346.875 24.3758 346.97 24.2809L347.096 24.1544L347.16 24.0912L347.223 24.0279L347.492 23.7591C348.219 23.0318 348.931 22.2887 349.642 21.5297C350.986 20.1225 352.33 18.6994 353.801 17.3396C353.453 16.7862 353.073 16.2644 352.662 15.7585C352.457 15.5055 352.235 15.2525 352.014 15.0153H352.045Z" fill="#830d0d"/>
<path d="M349.089 12.5171L348.947 12.4222C348.741 12.2957 348.535 12.185 348.33 12.0743C347.492 11.6474 346.606 11.2996 345.705 11.1098C345.247 11.015 344.804 10.9359 344.345 10.9043C343.887 10.8726 343.444 10.8726 342.986 10.9043C342.543 10.9517 342.1 11.0308 341.689 11.1414C341.278 11.2521 340.867 11.4261 340.487 11.6316C340.108 11.8372 339.744 12.0743 339.412 12.3589C339.08 12.6435 338.764 12.9598 338.479 13.2918C338.764 13.6397 339.064 13.9559 339.412 14.2247C339.744 14.5093 340.108 14.7465 340.487 14.952C340.867 15.1576 341.278 15.3157 341.689 15.4422C342.116 15.5687 342.543 15.6478 342.986 15.6794C343.428 15.711 343.887 15.711 344.345 15.6794C344.804 15.6478 345.262 15.5687 345.705 15.4738C346.606 15.2683 347.492 14.9362 348.33 14.5093C348.535 14.3986 348.741 14.288 348.947 14.1615L349.089 14.0666L349.231 13.9717C349.326 13.9085 349.437 13.8452 349.532 13.782C349.753 13.6239 349.974 13.4658 350.196 13.3076C349.974 13.1337 349.753 12.9756 349.532 12.8333C349.437 12.77 349.326 12.7068 349.231 12.6435L349.089 12.5487V12.5171Z" fill="#830d0d"/>
<path d="M336.329 7.67869V7.85262L336.36 8.02655L336.392 8.20047C336.455 8.67482 336.55 9.13336 336.661 9.5919C336.772 10.0504 336.93 10.4932 337.104 10.9201C337.119 10.9675 337.135 10.9991 337.151 11.0466C337.357 10.841 337.578 10.6355 337.799 10.4457C338.258 10.0662 338.764 9.71839 339.301 9.43378C339.839 9.14917 340.408 8.912 340.993 8.75388C341.578 8.59576 342.163 8.48508 342.764 8.42184C343.349 8.3744 343.95 8.3744 344.535 8.42184C345.12 8.46927 345.689 8.56414 346.259 8.69063C346.828 8.81713 347.381 8.99105 347.919 9.18079C348.456 9.38635 348.978 9.60771 349.484 9.87651C349.737 10.003 349.99 10.1453 350.227 10.3034L350.417 10.4141L350.591 10.5248C350.702 10.6038 350.828 10.6829 350.939 10.762C351.318 11.0149 351.682 11.2995 352.046 11.5842C352.267 11.347 352.472 11.094 352.694 10.841C353.216 10.1927 353.69 9.51284 354.133 8.7855C353.785 8.48508 353.453 8.20047 353.121 7.90005L352.536 7.37827C352.441 7.2834 352.33 7.20434 352.235 7.10947C352.14 7.0146 352.03 6.93555 351.935 6.84068C351.54 6.47701 351.16 6.11334 350.781 5.76549C350.022 5.05396 349.279 4.34244 348.52 3.67835C347.761 3.01427 346.986 2.3818 346.195 1.84421C345.389 1.30661 344.567 0.832264 343.697 0.50022C343.586 0.452785 343.476 0.421162 343.365 0.373727C343.318 0.357916 343.254 0.342104 343.207 0.326292C343.159 0.310481 343.096 0.294669 343.049 0.278858C342.843 0.215611 342.638 0.168176 342.416 0.136553C342.211 0.10493 342.005 0.0733067 341.8 0.0574951C341.594 0.0574951 341.389 0.0574951 341.183 0.0574951C340.788 0.0891183 340.392 0.183988 340.013 0.326292C339.633 0.468597 339.286 0.674148 338.954 0.927134C338.289 1.43311 337.736 2.113 337.309 2.90358C336.882 3.69417 336.598 4.5638 336.439 5.46507C336.36 5.90779 336.313 6.36633 336.313 6.82486C336.313 7.04623 336.313 7.2834 336.329 7.50476C336.329 7.56801 336.329 7.61545 336.329 7.67869Z" fill="#830d0d"/>
<path d="M354.623 12.4064C354.37 12.7068 354.117 13.0072 353.864 13.2918C354.133 13.5764 354.386 13.8769 354.623 14.1773C355.018 14.6674 355.382 15.1576 355.73 15.6794C355.824 15.6003 355.919 15.5371 356.014 15.458C356.236 15.2999 356.441 15.126 356.662 14.9679C357.516 14.3354 358.386 13.7187 359.271 13.1337L359.35 13.0863C358.212 12.2325 357.121 11.347 356.046 10.4299C355.619 11.1098 355.144 11.7739 354.639 12.4064H354.623Z" fill="#830d0d"/>
<path d="M332.265 12.1534C331.633 11.4419 331.048 10.588 330.526 9.62353C329.941 8.50091 329.466 7.28341 329.119 5.97105L328.897 5.14885C328.644 5.11722 328.391 5.0856 328.138 5.05398C327.601 4.99073 327.047 4.97492 326.494 4.95911H325.672C325.529 4.95911 325.403 4.95911 325.261 4.97492C325.118 4.97492 324.992 4.99073 324.85 5.00654C324.312 5.03816 323.774 5.10141 323.253 5.18047C323.126 5.19628 322.984 5.2279 322.857 5.24372L322.668 5.27534H322.636C322.588 5.41764 322.541 5.54414 322.494 5.67063C322.288 6.23985 322.051 6.77744 321.814 7.28341C321.561 7.78939 321.308 8.26373 321.039 8.70646C320.486 9.59191 319.9 10.3351 319.315 10.9517C318.13 12.185 316.912 12.8807 315.884 13.2602C315.031 13.5764 314.287 13.6713 313.75 13.6871C314.303 13.7187 315.031 13.8136 315.884 14.1298C316.912 14.4935 318.13 15.205 319.315 16.4383C319.916 17.055 320.501 17.7981 321.039 18.6836C321.308 19.1263 321.577 19.6007 321.814 20.1066C322.051 20.6126 322.288 21.1502 322.494 21.7194C322.541 21.8459 322.588 21.9882 322.636 22.1147H322.668L322.857 22.1463C322.984 22.1621 323.126 22.1938 323.253 22.2096C323.774 22.2886 324.312 22.3519 324.85 22.3835C325.387 22.4309 325.941 22.4309 326.478 22.4309C327.032 22.4151 327.569 22.3835 328.123 22.3361C328.376 22.3044 328.628 22.2728 328.881 22.2412L329.103 21.419C329.451 20.1066 329.925 18.8891 330.51 17.7823C331.032 16.802 331.617 15.9482 332.249 15.2525C332.613 14.8414 332.977 14.4935 333.245 14.2405L333.277 14.2089H333.309C333.309 14.2089 333.388 14.1298 333.419 14.0982C333.53 14.0033 333.672 13.8769 333.831 13.7662C333.846 13.7662 333.862 13.7345 333.878 13.7345H333.91C333.309 13.276 332.755 12.7542 332.265 12.185V12.1534Z" fill="#830d0d"/>
</g>
<defs>
<clipPath id="clip0_16_62">
<rect width="790.581" height="27.311" fill="white"/>
</clipPath>
</defs>
</svg>
