<svg xmlns="http://www.w3.org/2000/svg" xmlns:xlink="http://www.w3.org/1999/xlink" preserveAspectRatio="xMidYMid meet" version="1.0" viewBox="557.5 9.5 1833.6 1897.4" zoomAndPan="magnify" style="fill: rgb(0, 0, 0);" original_string_length="1852" width="47.80677292494658px" height="49.44899031549818px"><g><g id="__id0_sait0mf6w"><path d="M1431.12,395.77c7.36,12.64,13.08,27.24,22.35,37.58c41.58,46.38,84.18,91.55,126.4,137.16 c-2.35,3.58-4.71,7.15-7.06,10.73c-15.62-12.01-31.26-23.99-46.87-36.03c-97.64-75.33-196-149.1-309.08-190.96 c-94.56-34.99-189.29-41.44-283.57,0.29C743.82,438.4,660.23,676.45,738.33,909.19c60.48,180.22,173.77,310.03,306.05,419.32 c152.71,126.17,308.91,246.68,461.71,372.72c59.47,49.05,114.25,106.02,136.47,192.14c-139.84-183.39-340.25-254.96-515.76-372.07 c-152.13-101.51-301.33-205.4-410.37-370.02C606.6,985.47,557.55,801.82,604.38,595.29c66.96-295.26,323.45-451.12,577.28-346.91 c74.84,30.72,141.92,86.61,212.81,130.42C1406.01,385.93,1418.87,390.18,1431.12,395.77z" style="fill: rgb(242, 144, 149);"/></g><g id="__id1_sait0mf6w"><path d="M1664.07,1891.1c-2.19-11.74-7.94-24.34-6.03-35.1c34.28-192.44,131.08-344.94,235.55-492.8 c87.37-123.67,176.3-246.11,258.95-373.94c58.86-91.04,93.57-196.31,111.52-309.75c51.33-324.42-233.66-602.63-504.08-515.75 c-118.69,38.14-215.48,117.84-303.7,213.9c-5.62,6.12-11.8,11.53-17.73,17.27c-1.83-2.44-3.65-4.87-5.48-7.31 C1532.19,217.46,1658.95,91.6,1840.2,59.6c283.78-50.1,550.99,228.5,540.5,560.47c-6.03,190.93-74.78,354.53-176.72,496.87 c-100.46,140.27-213.08,268.87-320.15,402.81C1794.86,1631.05,1711.93,1747.21,1664.07,1891.1z" style="fill: rgb(242, 144, 149);"/></g><g id="__id2_sait0mf6w"><path d="M1642.58,1906.92c0,0,2.84-1.69,2.8-1.67C1642.84,1906,1641.93,1906.55,1642.58,1906.92z" style="fill: rgb(242, 144, 149);"/></g><g id="__id3_sait0mf6w"><path d="M1433.06,387.63c1.83,2.44,3.65,4.87,5.48,7.31c-2.72,0.59-5.43,1.19-8.15,1.78 C1431.28,393.69,1432.17,390.66,1433.06,387.63z" style="fill: rgb(242, 144, 149);"/></g></g></svg>