<svg width="307" height="35" viewBox="0 0 307 35" fill="none" xmlns="http://www.w3.org/2000/svg">
<path d="M207.88 0.340088V34.3483" stroke="#8D7979"/>
<mask id="mask0_13_56" style="mask-type:alpha" maskUnits="userSpaceOnUse" x="204" y="14" width="9" height="8">
<path d="M205.241 15.7984C204.747 16.5617 205.098 17.3046 205.528 17.6989L208.045 20L210.508 17.7072C210.908 17.283 211.064 16.833 210.976 16.332C210.859 15.6389 210.26 15.1012 209.519 15.0244C209.065 14.9778 208.627 15.1003 208.284 15.3714C208.192 15.4444 208.11 15.5259 208.038 15.6145C207.953 15.5136 207.853 15.4213 207.74 15.3395C207.347 15.0544 206.845 14.9412 206.364 15.0292C205.908 15.1131 205.499 15.3934 205.241 15.7984Z" fill="black"/>
</mask>
<g mask="url(#mask0_13_56)">
<rect width="7" height="7" transform="translate(204 14)" fill="#830D0D"/>
</g>
<path d="M99.7 0.340088V34.3483" stroke="#8D7979"/>
<mask id="mask1_13_56" style="mask-type:alpha" maskUnits="userSpaceOnUse" x="95" y="13" width="9" height="9">
<path d="M102.759 15.7984C103.253 16.5617 102.902 17.3046 102.472 17.6989L99.9554 20L97.492 17.7072C97.0917 17.283 96.9362 16.833 97.0235 16.332C97.1412 15.6389 97.7405 15.1012 98.4808 15.0244C98.9348 14.9778 99.3734 15.1003 99.7157 15.3714C99.8078 15.4444 99.8901 15.5259 99.9619 15.6145C100.047 15.5136 100.147 15.4213 100.26 15.3395C100.653 15.0544 101.155 14.9412 101.636 15.0292C102.092 15.1131 102.501 15.3934 102.759 15.7984Z" fill="black"/>
</mask>
<g mask="url(#mask1_13_56)">
<rect width="8.15" height="7.37" transform="translate(96 13)" fill="#830D0D"/>
</g>
<path d="M145.793 8.67173C146.143 8.60894 146.322 8.54615 146.367 8.21425L146.896 3.91753C146.932 3.60357 146.77 3.54078 146.421 3.47799L146.448 3.28961H148.439C149.775 3.28961 151.022 3.82783 151.022 5.63084C151.022 7.43385 149.811 8.84217 147.856 8.84217C147.533 8.84217 147.013 8.79732 146.645 8.79732C146.403 8.79732 146.125 8.81526 145.766 8.86011L145.793 8.67173ZM147.111 8.21425C147.066 8.54615 147.479 8.60894 147.829 8.60894C149.426 8.60894 150.188 7.18268 150.188 5.5501C150.188 4.35707 149.749 3.53181 148.412 3.53181H148.233C147.874 3.53181 147.676 3.60357 147.641 3.91753L147.111 8.21425ZM152.908 8.91393C152.101 8.91393 151.509 8.33984 151.509 7.26341C151.509 5.89994 152.433 4.73382 153.742 4.73382C154.254 4.73382 154.478 4.90425 154.747 4.90425C154.944 4.90425 154.989 4.81455 155.088 4.81455C155.168 4.81455 155.213 4.8594 155.204 4.9491L154.801 8.15146C154.756 8.51027 155.034 8.62688 155.33 8.46542L155.294 8.64482C155.079 8.84217 154.89 8.91393 154.693 8.91393C154.37 8.91393 154.209 8.71658 154.164 8.51924C154.137 8.36675 154.065 8.39366 153.949 8.5013C153.635 8.78835 153.285 8.91393 152.908 8.91393ZM152.235 7.07504C152.235 7.91824 152.594 8.54615 153.249 8.54615C153.715 8.54615 154.164 8.23219 154.316 6.94049L154.397 6.32154C154.514 5.36173 154.298 4.9491 153.706 4.9491C152.702 4.9491 152.235 6.10626 152.235 7.07504ZM157.082 8.90496C156.526 8.90496 156.158 8.591 156.248 7.84648L156.544 5.36173C156.562 5.12851 156.499 5.08365 156.382 5.08365H155.979L156.006 4.88631C156.481 4.69794 156.813 4.4378 157.091 3.94444C157.118 3.89062 157.163 3.87268 157.208 3.87268H157.279C157.333 3.87268 157.369 3.90856 157.36 3.96238L157.279 4.58132C157.252 4.76073 157.315 4.81455 157.665 4.81455H158.311L158.266 5.13748L157.638 5.10159C157.279 5.08365 157.217 5.15542 157.19 5.37967L156.93 7.7478C156.867 8.27704 156.921 8.60894 157.333 8.60894C157.513 8.60894 157.665 8.54615 157.818 8.44748L157.88 8.57306C157.701 8.75247 157.468 8.90496 157.082 8.90496ZM160.159 8.91393C159.19 8.91393 158.482 8.19631 158.482 7.11092C158.482 6.05244 159.172 4.71588 160.563 4.71588C161.379 4.71588 161.792 5.15542 161.792 5.74745C161.792 6.36639 161.343 6.82387 159.998 7.04813L159.513 7.12886C159.289 7.16474 159.235 7.36208 159.352 7.64913C159.54 8.12455 159.917 8.46542 160.473 8.46542C160.823 8.46542 161.227 8.33087 161.487 8.03485L161.612 8.17837C161.37 8.48336 160.904 8.91393 160.159 8.91393ZM159.181 6.61756C159.181 6.88666 159.352 6.94946 159.558 6.91357L159.854 6.86872C160.984 6.68035 161.119 6.18699 161.119 5.76539C161.119 5.25409 160.895 4.92219 160.419 4.92219C159.729 4.92219 159.181 5.63084 159.181 6.61756Z" fill="black"/>
<path d="M116.57 21.2362C116.74 21.1016 116.817 21.0394 116.802 21.0493C117.29 20.6458 117.674 20.3145 117.953 20.0554C118.237 19.7963 118.476 19.5248 118.67 19.2408C118.865 18.9568 118.962 18.6803 118.962 18.4112C118.962 18.207 118.914 18.0475 118.82 17.9329C118.725 17.8184 118.583 17.7611 118.394 17.7611C118.204 17.7611 118.055 17.8333 117.945 17.9778C117.841 18.1173 117.788 18.3166 117.788 18.5757H116.555C116.565 18.1522 116.655 17.7984 116.824 17.5144C116.999 17.2305 117.225 17.0212 117.504 16.8867C117.788 16.7522 118.102 16.6849 118.446 16.6849C119.039 16.6849 119.485 16.8369 119.784 17.1408C120.088 17.4447 120.24 17.8408 120.24 18.329C120.24 18.8621 120.058 19.3579 119.694 19.8162C119.33 20.2696 118.867 20.713 118.304 21.1465H120.322V22.1853H116.57V21.2362ZM124.688 17.7611L122.813 22.26H121.505L123.403 17.9031H121.079V16.8119H124.688V17.7611ZM130.825 21.3333H128.867L128.553 22.26H127.215L129.113 17.0137H130.593L132.491 22.26H131.138L130.825 21.3333ZM130.496 20.3468L129.846 18.4262L129.203 20.3468H130.496ZM134.646 17.0137V20.1525C134.646 20.4664 134.723 20.708 134.877 20.8774C135.032 21.0468 135.258 21.1315 135.557 21.1315C135.856 21.1315 136.086 21.0468 136.245 20.8774C136.404 20.708 136.484 20.4664 136.484 20.1525V17.0137H137.762V20.1451C137.762 20.6134 137.662 21.0095 137.463 21.3333C137.264 21.6572 136.995 21.9013 136.656 22.0657C136.322 22.2301 135.949 22.3123 135.535 22.3123C135.121 22.3123 134.75 22.2326 134.421 22.0732C134.098 21.9088 133.841 21.6646 133.652 21.3408C133.462 21.012 133.368 20.6134 133.368 20.1451V17.0137H134.646ZM140.714 21.2362C140.883 21.1016 140.961 21.0394 140.946 21.0493C141.434 20.6458 141.818 20.3145 142.097 20.0554C142.381 19.7963 142.62 19.5248 142.814 19.2408C143.008 18.9568 143.105 18.6803 143.105 18.4112C143.105 18.207 143.058 18.0475 142.963 17.9329C142.869 17.8184 142.727 17.7611 142.537 17.7611C142.348 17.7611 142.199 17.8333 142.089 17.9778C141.984 18.1173 141.932 18.3166 141.932 18.5757H140.699C140.709 18.1522 140.799 17.7984 140.968 17.5144C141.142 17.2305 141.369 17.0212 141.648 16.8867C141.932 16.7522 142.246 16.6849 142.59 16.6849C143.183 16.6849 143.629 16.8369 143.928 17.1408C144.231 17.4447 144.383 17.8408 144.383 18.329C144.383 18.8621 144.202 19.3579 143.838 19.8162C143.474 20.2696 143.011 20.713 142.448 21.1465H144.466V22.1853H140.714V21.2362ZM146.246 19.3305C145.778 19.0814 145.544 18.6902 145.544 18.1571C145.544 17.8881 145.614 17.644 145.753 17.4248C145.893 17.2006 146.104 17.0237 146.388 16.8942C146.672 16.7596 147.021 16.6924 147.435 16.6924C147.848 16.6924 148.194 16.7596 148.473 16.8942C148.757 17.0237 148.969 17.2006 149.109 17.4248C149.248 17.644 149.318 17.8881 149.318 18.1571C149.318 18.4262 149.253 18.6604 149.124 18.8596C148.999 19.0589 148.83 19.2159 148.615 19.3305C148.884 19.46 149.091 19.6394 149.236 19.8685C149.38 20.0927 149.452 20.3568 149.452 20.6607C149.452 21.0145 149.363 21.3209 149.183 21.5799C149.004 21.834 148.76 22.0283 148.451 22.1629C148.147 22.2974 147.808 22.3646 147.435 22.3646C147.061 22.3646 146.72 22.2974 146.411 22.1629C146.107 22.0283 145.865 21.834 145.686 21.5799C145.507 21.3209 145.417 21.0145 145.417 20.6607C145.417 20.3518 145.489 20.0853 145.634 19.8611C145.778 19.6319 145.982 19.455 146.246 19.3305ZM148.077 18.3515C148.077 18.1472 148.018 17.9902 147.898 17.8806C147.783 17.766 147.629 17.7087 147.435 17.7087C147.24 17.7087 147.083 17.766 146.964 17.8806C146.849 17.9952 146.792 18.1547 146.792 18.3589C146.792 18.5532 146.852 18.7077 146.971 18.8223C147.091 18.9319 147.245 18.9867 147.435 18.9867C147.624 18.9867 147.778 18.9294 147.898 18.8148C148.018 18.7002 148.077 18.5458 148.077 18.3515ZM147.435 19.8835C147.2 19.8835 147.011 19.9483 146.867 20.0778C146.722 20.2024 146.65 20.3767 146.65 20.6009C146.65 20.8102 146.72 20.9821 146.859 21.1166C147.004 21.2511 147.196 21.3184 147.435 21.3184C147.674 21.3184 147.861 21.2511 147.995 21.1166C148.135 20.9821 148.204 20.8102 148.204 20.6009C148.204 20.3817 148.132 20.2073 147.988 20.0778C147.848 19.9483 147.664 19.8835 147.435 19.8835ZM155.837 17.0137V20.586C155.837 21.139 155.68 21.565 155.366 21.8639C155.058 22.1629 154.639 22.3123 154.111 22.3123C153.558 22.3123 153.115 22.1554 152.781 21.8415C152.447 21.5276 152.28 21.0817 152.28 20.5038H153.55C153.55 20.723 153.595 20.8899 153.685 21.0045C153.775 21.1141 153.904 21.1689 154.074 21.1689C154.228 21.1689 154.348 21.1191 154.432 21.0194C154.517 20.9198 154.559 20.7753 154.559 20.586V17.0137H155.837ZM158.446 17.0137V20.1525C158.446 20.4664 158.524 20.708 158.678 20.8774C158.833 21.0468 159.059 21.1315 159.358 21.1315C159.657 21.1315 159.886 21.0468 160.046 20.8774C160.205 20.708 160.285 20.4664 160.285 20.1525V17.0137H161.563V20.1451C161.563 20.6134 161.463 21.0095 161.264 21.3333C161.065 21.6572 160.796 21.9013 160.457 22.0657C160.123 22.2301 159.749 22.3123 159.336 22.3123C158.922 22.3123 158.551 22.2326 158.222 22.0732C157.898 21.9088 157.642 21.6646 157.452 21.3408C157.263 21.012 157.169 20.6134 157.169 20.1451V17.0137H158.446ZM164.06 17.0137V22.26H162.782V17.0137H164.06ZM170 22.26H168.722L166.585 19.0241V22.26H165.307V17.0137H166.585L168.722 20.2646V17.0137H170V22.26ZM172.981 21.2362C173.15 21.1016 173.228 21.0394 173.213 21.0493C173.701 20.6458 174.085 20.3145 174.364 20.0554C174.648 19.7963 174.887 19.5248 175.081 19.2408C175.275 18.9568 175.373 18.6803 175.373 18.4112C175.373 18.207 175.325 18.0475 175.231 17.9329C175.136 17.8184 174.994 17.7611 174.805 17.7611C174.615 17.7611 174.466 17.8333 174.356 17.9778C174.252 18.1173 174.199 18.3166 174.199 18.5757H172.966C172.976 18.1522 173.066 17.7984 173.235 17.5144C173.41 17.2305 173.636 17.0212 173.915 16.8867C174.199 16.7522 174.513 16.6849 174.857 16.6849C175.45 16.6849 175.896 16.8369 176.195 17.1408C176.499 17.4447 176.65 17.8408 176.65 18.329C176.65 18.8621 176.469 19.3579 176.105 19.8162C175.741 20.2696 175.278 20.713 174.715 21.1465H176.733V22.1853H172.981V21.2362ZM177.617 19.4575C177.617 18.6006 177.781 17.9255 178.11 17.4322C178.444 16.939 178.979 16.6924 179.717 16.6924C180.454 16.6924 180.987 16.939 181.316 17.4322C181.65 17.9255 181.817 18.6006 181.817 19.4575C181.817 20.3244 181.65 21.0045 181.316 21.4977C180.987 21.991 180.454 22.2376 179.717 22.2376C178.979 22.2376 178.444 21.991 178.11 21.4977C177.781 21.0045 177.617 20.3244 177.617 19.4575ZM180.561 19.4575C180.561 18.9543 180.506 18.5682 180.397 18.2991C180.287 18.0251 180.06 17.8881 179.717 17.8881C179.373 17.8881 179.146 18.0251 179.037 18.2991C178.927 18.5682 178.872 18.9543 178.872 19.4575C178.872 19.7963 178.892 20.0778 178.932 20.302C178.972 20.5212 179.052 20.7006 179.171 20.8401C179.296 20.9746 179.478 21.0419 179.717 21.0419C179.956 21.0419 180.135 20.9746 180.255 20.8401C180.379 20.7006 180.462 20.5212 180.501 20.302C180.541 20.0778 180.561 19.7963 180.561 19.4575ZM182.768 21.2362C182.938 21.1016 183.015 21.0394 183 21.0493C183.488 20.6458 183.872 20.3145 184.151 20.0554C184.435 19.7963 184.674 19.5248 184.868 19.2408C185.063 18.9568 185.16 18.6803 185.16 18.4112C185.16 18.207 185.113 18.0475 185.018 17.9329C184.923 17.8184 184.781 17.7611 184.592 17.7611C184.403 17.7611 184.253 17.8333 184.144 17.9778C184.039 18.1173 183.987 18.3166 183.987 18.5757H182.753C182.763 18.1522 182.853 17.7984 183.023 17.5144C183.197 17.2305 183.424 17.0212 183.703 16.8867C183.987 16.7522 184.3 16.6849 184.644 16.6849C185.237 16.6849 185.683 16.8369 185.982 17.1408C186.286 17.4447 186.438 17.8408 186.438 18.329C186.438 18.8621 186.256 19.3579 185.892 19.8162C185.529 20.2696 185.065 20.713 184.502 21.1465H186.52V22.1853H182.768V21.2362ZM191.245 17.918H188.914V18.9493C189.013 18.8397 189.153 18.75 189.332 18.6803C189.512 18.6105 189.706 18.5757 189.915 18.5757C190.289 18.5757 190.598 18.6604 190.842 18.8297C191.091 18.9991 191.273 19.2184 191.387 19.4874C191.502 19.7564 191.559 20.0479 191.559 20.3618C191.559 20.9447 191.395 21.408 191.066 21.7518C190.737 22.0906 190.274 22.26 189.676 22.26C189.277 22.26 188.931 22.1927 188.637 22.0582C188.343 21.9187 188.117 21.7269 187.957 21.4828C187.798 21.2387 187.71 20.9572 187.696 20.6383H188.944C188.973 20.7927 189.046 20.9223 189.16 21.0269C189.275 21.1266 189.432 21.1764 189.631 21.1764C189.865 21.1764 190.04 21.1016 190.154 20.9522C190.269 20.8027 190.326 20.6034 190.326 20.3543C190.326 20.1102 190.266 19.9233 190.147 19.7938C190.027 19.6643 189.853 19.5995 189.624 19.5995C189.454 19.5995 189.315 19.6419 189.205 19.7265C189.096 19.8063 189.023 19.9134 188.988 20.0479H187.755V16.797H191.245V17.918Z" fill="black"/>
<path d="M254.52 8.67173C254.87 8.60894 255.076 8.54615 255.103 8.21425L255.641 3.93547C255.668 3.60357 255.498 3.54078 255.148 3.47799L255.175 3.28961H256.978L256.96 3.47799C256.592 3.54078 256.413 3.60357 256.377 3.93547L255.848 8.21425C255.812 8.49233 255.919 8.65379 256.377 8.62688L257.633 8.57306C258.162 8.54615 258.44 8.30396 258.637 8.01691L258.817 7.7478H258.996L258.763 8.31293C258.673 8.49233 258.611 8.65379 258.602 8.86011H254.493L254.52 8.67173ZM260.175 8.91393C259.87 8.91393 259.601 8.72555 259.655 8.29499L260.059 5.48731C260.112 5.13748 259.834 5.05674 259.556 5.20027L259.592 5.02086C259.781 4.82352 260.041 4.75176 260.229 4.75176C260.516 4.75176 260.785 4.93116 260.722 5.3707L260.328 8.15146C260.274 8.51027 260.552 8.62688 260.848 8.46542L260.812 8.64482C260.606 8.84217 260.364 8.91393 260.175 8.91393ZM260.095 3.30756C260.095 3.04742 260.292 2.85905 260.534 2.85905C260.785 2.85905 260.983 3.04742 260.983 3.30756C260.983 3.56769 260.785 3.75607 260.534 3.75607C260.292 3.75607 260.095 3.56769 260.095 3.30756ZM263.131 8.91393C262.162 8.91393 261.454 8.19631 261.454 7.11092C261.454 6.05244 262.145 4.71588 263.535 4.71588C264.351 4.71588 264.764 5.15542 264.764 5.74745C264.764 6.36639 264.315 6.82387 262.97 7.04813L262.485 7.12886C262.261 7.16474 262.207 7.36208 262.324 7.64913C262.512 8.12455 262.889 8.46542 263.445 8.46542C263.795 8.46542 264.199 8.33087 264.459 8.03485L264.584 8.17837C264.342 8.48336 263.876 8.91393 263.131 8.91393ZM262.154 6.61756C262.154 6.88666 262.324 6.94946 262.53 6.91357L262.826 6.86872C263.957 6.68035 264.091 6.18699 264.091 5.76539C264.091 5.25409 263.867 4.92219 263.391 4.92219C262.701 4.92219 262.154 5.63084 262.154 6.61756ZM266.557 8.91393C265.938 8.91393 265.481 8.52821 265.615 7.48767L265.875 5.50525C265.929 5.13748 265.642 5.05674 265.364 5.20027L265.4 5.02086C265.588 4.82352 265.804 4.75176 266.001 4.75176C266.297 4.75176 266.584 4.93116 266.521 5.4604L266.288 7.27238C266.18 8.13352 266.432 8.43851 266.907 8.43851C267.661 8.43851 268.208 7.68501 268.351 6.37536L268.45 5.50525C268.495 5.13748 268.208 5.05674 267.93 5.20027L267.966 5.02086C268.154 4.82352 268.369 4.75176 268.567 4.75176C268.863 4.75176 269.168 4.93116 269.087 5.5501L268.755 8.15146C268.71 8.51027 268.979 8.62688 269.275 8.46542L269.239 8.64482C269.033 8.84217 268.791 8.91393 268.602 8.91393C268.297 8.91393 268.037 8.75247 268.1 8.18734C268.163 7.55046 267.723 8.91393 266.557 8.91393Z" fill="black"/>
<path d="M227.373 19.4575C227.373 18.6006 227.537 17.9255 227.866 17.4322C228.2 16.939 228.736 16.6924 229.473 16.6924C230.21 16.6924 230.743 16.939 231.072 17.4322C231.406 17.9255 231.573 18.6006 231.573 19.4575C231.573 20.3244 231.406 21.0045 231.072 21.4977C230.743 21.991 230.21 22.2376 229.473 22.2376C228.736 22.2376 228.2 21.991 227.866 21.4977C227.537 21.0045 227.373 20.3244 227.373 19.4575ZM230.317 19.4575C230.317 18.9543 230.263 18.5682 230.153 18.2991C230.043 18.0251 229.817 17.8881 229.473 17.8881C229.129 17.8881 228.902 18.0251 228.793 18.2991C228.683 18.5682 228.628 18.9543 228.628 19.4575C228.628 19.7963 228.648 20.0778 228.688 20.302C228.728 20.5212 228.808 20.7006 228.927 20.8401C229.052 20.9746 229.234 21.0419 229.473 21.0419C229.712 21.0419 229.891 20.9746 230.011 20.8401C230.136 20.7006 230.218 20.5212 230.258 20.302C230.298 20.0778 230.317 19.7963 230.317 19.4575ZM232.569 19.4575C232.569 18.6006 232.734 17.9255 233.063 17.4322C233.397 16.939 233.932 16.6924 234.669 16.6924C235.407 16.6924 235.94 16.939 236.269 17.4322C236.603 17.9255 236.769 18.6006 236.769 19.4575C236.769 20.3244 236.603 21.0045 236.269 21.4977C235.94 21.991 235.407 22.2376 234.669 22.2376C233.932 22.2376 233.397 21.991 233.063 21.4977C232.734 21.0045 232.569 20.3244 232.569 19.4575ZM235.514 19.4575C235.514 18.9543 235.459 18.5682 235.35 18.2991C235.24 18.0251 235.013 17.8881 234.669 17.8881C234.326 17.8881 234.099 18.0251 233.989 18.2991C233.88 18.5682 233.825 18.9543 233.825 19.4575C233.825 19.7963 233.845 20.0778 233.885 20.302C233.925 20.5212 234.004 20.7006 234.124 20.8401C234.248 20.9746 234.43 21.0419 234.669 21.0419C234.909 21.0419 235.088 20.9746 235.208 20.8401C235.332 20.7006 235.414 20.5212 235.454 20.302C235.494 20.0778 235.514 19.7963 235.514 19.4575ZM237.721 21.2362C237.891 21.1016 237.968 21.0394 237.953 21.0493C238.441 20.6458 238.825 20.3145 239.104 20.0554C239.388 19.7963 239.627 19.5248 239.821 19.2408C240.015 18.9568 240.113 18.6803 240.113 18.4112C240.113 18.207 240.065 18.0475 239.971 17.9329C239.876 17.8184 239.734 17.7611 239.545 17.7611C239.355 17.7611 239.206 17.8333 239.096 17.9778C238.992 18.1173 238.939 18.3166 238.939 18.5757H237.706C237.716 18.1522 237.806 17.7984 237.975 17.5144C238.15 17.2305 238.376 17.0212 238.655 16.8867C238.939 16.7522 239.253 16.6849 239.597 16.6849C240.19 16.6849 240.636 16.8369 240.935 17.1408C241.239 17.4447 241.391 17.8408 241.391 18.329C241.391 18.8621 241.209 19.3579 240.845 19.8162C240.481 20.2696 240.018 20.713 239.455 21.1465H241.473V22.1853H237.721V21.2362ZM242.402 18.344C242.422 17.8109 242.596 17.3998 242.925 17.1109C243.254 16.8219 243.7 16.6774 244.263 16.6774C244.636 16.6774 244.955 16.7422 245.219 16.8717C245.488 17.0013 245.69 17.1781 245.824 17.4023C245.964 17.6265 246.034 17.8781 246.034 18.1571C246.034 18.486 245.951 18.755 245.787 18.9643C245.623 19.1685 245.431 19.308 245.212 19.3828V19.4127C245.496 19.5073 245.72 19.6643 245.884 19.8835C246.049 20.1027 246.131 20.3842 246.131 20.728C246.131 21.0369 246.059 21.3109 245.914 21.55C245.775 21.7842 245.568 21.9685 245.294 22.1031C245.025 22.2376 244.703 22.3048 244.33 22.3048C243.732 22.3048 243.254 22.1579 242.895 21.8639C242.541 21.57 242.354 21.1266 242.334 20.5337H243.575C243.58 20.7529 243.642 20.9273 243.762 21.0568C243.881 21.1814 244.056 21.2436 244.285 21.2436C244.479 21.2436 244.629 21.1888 244.733 21.0792C244.843 20.9646 244.898 20.8152 244.898 20.6308C244.898 20.3917 244.821 20.2198 244.666 20.1152C244.517 20.0056 244.275 19.9507 243.941 19.9507H243.702V18.912H243.941C244.195 18.912 244.4 18.8696 244.554 18.7849C244.713 18.6952 244.793 18.5383 244.793 18.3141C244.793 18.1347 244.743 17.9952 244.644 17.8956C244.544 17.7959 244.407 17.7461 244.233 17.7461C244.043 17.7461 243.901 17.8034 243.807 17.918C243.717 18.0326 243.665 18.1746 243.65 18.344H242.402ZM250.686 17.7611L248.81 22.26H247.502L249.4 17.9031H247.076V16.8119H250.686V17.7611ZM256.971 17.0137V18.0376H254.834V19.1436H256.433V20.1376H254.834V22.26H253.556V17.0137H256.971ZM260.445 22.3123C259.952 22.3123 259.499 22.1977 259.085 21.9685C258.677 21.7394 258.35 21.4205 258.106 21.012C257.867 20.5984 257.747 20.1351 257.747 19.6219C257.747 19.1088 257.867 18.6479 258.106 18.2394C258.35 17.8308 258.677 17.512 259.085 17.2828C259.499 17.0536 259.952 16.939 260.445 16.939C260.939 16.939 261.389 17.0536 261.798 17.2828C262.212 17.512 262.535 17.8308 262.77 18.2394C263.009 18.6479 263.128 19.1088 263.128 19.6219C263.128 20.1351 263.009 20.5984 262.77 21.012C262.53 21.4205 262.207 21.7394 261.798 21.9685C261.389 22.1977 260.939 22.3123 260.445 22.3123ZM260.445 21.1465C260.864 21.1465 261.198 21.007 261.447 20.728C261.701 20.449 261.828 20.0803 261.828 19.6219C261.828 19.1586 261.701 18.7899 261.447 18.5159C261.198 18.2369 260.864 18.0974 260.445 18.0974C260.022 18.0974 259.683 18.2344 259.429 18.5084C259.18 18.7824 259.055 19.1536 259.055 19.6219C259.055 20.0853 259.18 20.4564 259.429 20.7354C259.683 21.0095 260.022 21.1465 260.445 21.1465ZM265.416 17.0137V20.1525C265.416 20.4664 265.493 20.708 265.648 20.8774C265.802 21.0468 266.029 21.1315 266.328 21.1315C266.627 21.1315 266.856 21.0468 267.015 20.8774C267.175 20.708 267.255 20.4664 267.255 20.1525V17.0137H268.533V20.1451C268.533 20.6134 268.433 21.0095 268.234 21.3333C268.034 21.6572 267.765 21.9013 267.426 22.0657C267.093 22.2301 266.719 22.3123 266.305 22.3123C265.892 22.3123 265.521 22.2326 265.192 22.0732C264.868 21.9088 264.611 21.6646 264.422 21.3408C264.233 21.012 264.138 20.6134 264.138 20.1451V17.0137H265.416ZM275.693 17.0137V22.26H274.415V19.1137L273.241 22.26H272.21L271.029 19.1063V22.26H269.751V17.0137H271.261L272.733 20.6458L274.19 17.0137H275.693ZM280.109 19.5696C280.413 19.6344 280.657 19.7863 280.841 20.0255C281.026 20.2596 281.118 20.5287 281.118 20.8326C281.118 21.271 280.964 21.6198 280.655 21.8789C280.351 22.133 279.925 22.26 279.377 22.26H276.933V17.0137H279.294C279.828 17.0137 280.244 17.1358 280.543 17.3799C280.846 17.624 280.998 17.9554 280.998 18.3739C280.998 18.6828 280.916 18.9394 280.752 19.1436C280.592 19.3479 280.378 19.4899 280.109 19.5696ZM278.211 19.1362H279.048C279.257 19.1362 279.417 19.0913 279.526 19.0016C279.641 18.907 279.698 18.77 279.698 18.5906C279.698 18.4112 279.641 18.2742 279.526 18.1796C279.417 18.0849 279.257 18.0376 279.048 18.0376H278.211V19.1362ZM279.152 21.2287C279.367 21.2287 279.531 21.1814 279.646 21.0867C279.765 20.9871 279.825 20.8451 279.825 20.6607C279.825 20.4764 279.763 20.3319 279.638 20.2273C279.519 20.1226 279.352 20.0703 279.138 20.0703H278.211V21.2287H279.152ZM285.446 21.3333H283.488L283.174 22.26H281.837L283.735 17.0137H285.215L287.113 22.26H285.76L285.446 21.3333ZM285.118 20.3468L284.467 18.4262L283.825 20.3468H285.118ZM292.705 22.26H291.427L289.29 19.0241V22.26H288.012V17.0137H289.29L291.427 20.2646V17.0137H292.705V22.26ZM299.138 21.0792L298.309 23.2241H297.494L297.927 21.0792H299.138Z" fill="black"/>
<path d="M239.55 29.5896C239.55 29.0714 239.662 28.6106 239.886 28.207C240.111 27.7985 240.422 27.4821 240.82 27.2579C241.224 27.0287 241.68 26.9141 242.188 26.9141C242.811 26.9141 243.344 27.0786 243.787 27.4074C244.231 27.7362 244.527 28.1846 244.677 28.7526H243.272C243.167 28.5334 243.018 28.3665 242.823 28.2519C242.634 28.1373 242.417 28.08 242.173 28.08C241.78 28.08 241.461 28.217 241.217 28.491C240.972 28.765 240.85 29.1312 240.85 29.5896C240.85 30.048 240.972 30.4142 241.217 30.6882C241.461 30.9622 241.78 31.0992 242.173 31.0992C242.417 31.0992 242.634 31.0419 242.823 30.9273C243.018 30.8127 243.167 30.6458 243.272 30.4266H244.677C244.527 30.9946 244.231 31.443 243.787 31.7718C243.344 32.0957 242.811 32.2576 242.188 32.2576C241.68 32.2576 241.224 32.1455 240.82 31.9213C240.422 31.6921 240.111 31.3757 239.886 30.9722C239.662 30.5686 239.55 30.1078 239.55 29.5896ZM249.047 31.2935H247.089L246.775 32.2202H245.437L247.335 26.9739H248.815L250.713 32.2202H249.36L249.047 31.2935ZM248.718 30.307L248.068 28.3864L247.425 30.307H248.718ZM257.553 26.9739V32.2202H256.276V29.0739L255.102 32.2202H254.071L252.89 29.0665V32.2202H251.612V26.9739H253.122L254.594 30.606L256.051 26.9739H257.553ZM260.072 27.9978V29.059H261.783V30.0455H260.072V31.1964H262.007V32.2202H258.794V26.9739H262.007V27.9978H260.072ZM265.834 32.2202L264.743 30.2398H264.436V32.2202H263.158V26.9739H265.303C265.717 26.9739 266.068 27.0462 266.357 27.1907C266.651 27.3351 266.87 27.5344 267.015 27.7885C267.159 28.0376 267.231 28.3166 267.231 28.6255C267.231 28.9743 267.132 29.2857 266.932 29.5597C266.738 29.8337 266.449 30.028 266.065 30.1426L267.276 32.2202H265.834ZM264.436 29.3355H265.228C265.463 29.3355 265.637 29.2782 265.752 29.1636C265.871 29.049 265.931 28.8871 265.931 28.6779C265.931 28.4786 265.871 28.3216 265.752 28.207C265.637 28.0924 265.463 28.0351 265.228 28.0351H264.436V29.3355ZM270.836 32.2725C270.343 32.2725 269.889 32.1579 269.476 31.9288C269.067 31.6996 268.741 31.3807 268.497 30.9722C268.258 30.5586 268.138 30.0953 268.138 29.5821C268.138 29.069 268.258 28.6081 268.497 28.1996C268.741 27.791 269.067 27.4722 269.476 27.243C269.889 27.0138 270.343 26.8992 270.836 26.8992C271.329 26.8992 271.78 27.0138 272.189 27.243C272.602 27.4722 272.926 27.791 273.16 28.1996C273.399 28.6081 273.519 29.069 273.519 29.5821C273.519 30.0953 273.399 30.5586 273.16 30.9722C272.921 31.3807 272.597 31.6996 272.189 31.9288C271.78 32.1579 271.329 32.2725 270.836 32.2725ZM270.836 31.1067C271.255 31.1067 271.588 30.9672 271.837 30.6882C272.092 30.4092 272.219 30.0405 272.219 29.5821C272.219 29.1188 272.092 28.7501 271.837 28.4761C271.588 28.1971 271.255 28.0576 270.836 28.0576C270.413 28.0576 270.074 28.1946 269.82 28.4686C269.571 28.7426 269.446 29.1138 269.446 29.5821C269.446 30.0455 269.571 30.4166 269.82 30.6957C270.074 30.9697 270.413 31.1067 270.836 31.1067ZM275.807 26.9739V30.1127C275.807 30.4266 275.884 30.6683 276.038 30.8376C276.193 31.007 276.42 31.0917 276.719 31.0917C277.017 31.0917 277.247 31.007 277.406 30.8376C277.566 30.6683 277.645 30.4266 277.645 30.1127V26.9739H278.923V30.1053C278.923 30.5736 278.824 30.9697 278.624 31.2935C278.425 31.6174 278.156 31.8615 277.817 32.0259C277.483 32.1903 277.11 32.2725 276.696 32.2725C276.283 32.2725 275.911 32.1928 275.583 32.0334C275.259 31.869 275.002 31.6248 274.813 31.301C274.624 30.9722 274.529 30.5736 274.529 30.1053V26.9739H275.807ZM284.835 32.2202H283.557L281.42 28.9843V32.2202H280.142V26.9739H281.42L283.557 30.2248V26.9739H284.835V32.2202Z" fill="black"/>
<path d="M24.6731 7.67762C25.0034 7.61679 25.1858 7.55596 25.2293 7.23444L25.742 3.08936C25.7854 2.76784 25.603 2.70701 25.2814 2.64618L25.3075 2.46369H26.3937L28.879 6.67828L29.3222 3.08936C29.3657 2.76784 29.1919 2.70701 28.879 2.64618L28.9051 2.46369H30.1912L30.1651 2.64618C29.8262 2.70701 29.6611 2.76784 29.6177 3.08936L29.0268 7.86011H28.74L26.0027 3.27185L25.5161 7.23444C25.4726 7.55596 25.629 7.61679 25.9419 7.67762L25.9245 7.86011H24.6471L24.6731 7.67762ZM31.9221 7.91225C30.9576 7.91225 30.2363 7.21706 30.2363 6.13951C30.2363 5.02721 31.0184 3.84538 32.2871 3.84538C33.2517 3.84538 33.9643 4.54057 33.9643 5.61812C33.9643 6.73042 33.1909 7.91225 31.9221 7.91225ZM30.9662 5.87013C30.9662 6.72173 31.2878 7.70369 32.0872 7.70369C32.8693 7.70369 33.243 6.79125 33.243 5.8875C33.243 5.0359 32.9215 4.04525 32.122 4.04525C31.3399 4.04525 30.9662 4.95769 30.9662 5.87013ZM35.6182 7.90356C35.0794 7.90356 34.7231 7.59941 34.81 6.87815L35.0968 4.47105C35.1142 4.24512 35.0533 4.20167 34.9404 4.20167H34.5493L34.5754 4.01049C35.036 3.828 35.3575 3.576 35.6269 3.09805C35.6529 3.04591 35.6964 3.02853 35.7398 3.02853H35.8094C35.8615 3.02853 35.8963 3.06329 35.8876 3.11543L35.8094 3.71504C35.7833 3.88883 35.8441 3.94097 36.183 3.94097H36.8087L36.7652 4.25381L36.157 4.21905C35.8094 4.20167 35.7485 4.27119 35.7225 4.48843L35.4705 6.78256C35.4096 7.29527 35.4618 7.61679 35.8615 7.61679C36.0353 7.61679 36.183 7.55596 36.3307 7.46037L36.3916 7.58203C36.2178 7.75583 35.9918 7.90356 35.6182 7.90356ZM37.7273 4.61009C37.7708 4.27119 37.5014 4.1756 37.232 4.31464L37.2667 4.14084C37.4492 3.94966 37.6665 3.88014 37.8577 3.88014C38.1444 3.88014 38.3704 4.02787 38.3704 4.54926C38.3704 4.75782 38.4312 4.76651 38.5181 4.59271C38.6832 4.2625 39.0655 3.84538 39.613 3.84538C39.9345 3.84538 40.1344 4.0018 40.1344 4.25381C40.1344 4.46236 39.9867 4.67092 39.6304 4.80996H39.6217C39.6391 4.50581 39.5 4.33202 39.2567 4.33202C38.718 4.33202 38.2835 5.04459 38.1444 6.20034L37.9359 7.86011H37.3189L37.7273 4.61009ZM41.8494 7.91225C40.9109 7.91225 40.2244 7.21706 40.2244 6.16558C40.2244 5.14018 40.8935 3.84538 42.2404 3.84538C43.0312 3.84538 43.4309 4.27119 43.4309 4.84472C43.4309 5.44432 42.9964 5.8875 41.6929 6.10475L41.2237 6.18296C41.0064 6.21772 40.9543 6.4089 41.0673 6.68697C41.2498 7.14754 41.6147 7.47775 42.1535 7.47775C42.4924 7.47775 42.8835 7.3474 43.1355 7.06064L43.2571 7.19968C43.0225 7.49513 42.5706 7.91225 41.8494 7.91225ZM40.9022 5.68764C40.9022 5.94833 41.0673 6.00916 41.2671 5.9744L41.5539 5.93095C42.6488 5.74847 42.7792 5.27052 42.7792 4.8621C42.7792 4.36678 42.5619 4.04525 42.1014 4.04525C41.4323 4.04525 40.9022 4.73175 40.9022 5.68764ZM46.6418 7.90356C46.103 7.90356 45.7467 7.59941 45.8336 6.87815L46.1204 4.47105C46.1378 4.24512 46.0769 4.20167 45.964 4.20167H45.5729L45.599 4.01049C46.0595 3.828 46.3811 3.576 46.6505 3.09805C46.6765 3.04591 46.72 3.02853 46.7634 3.02853H46.8329C46.8851 3.02853 46.9198 3.06329 46.9112 3.11543L46.8329 3.71504C46.8069 3.88883 46.8677 3.94097 47.2066 3.94097H47.8323L47.7888 4.25381L47.1805 4.21905C46.8329 4.20167 46.7721 4.27119 46.746 4.48843L46.494 6.78256C46.4332 7.29527 46.4853 7.61679 46.8851 7.61679C47.0589 7.61679 47.2066 7.55596 47.3543 7.46037L47.4152 7.58203C47.2414 7.75583 47.0154 7.90356 46.6418 7.90356ZM51.2304 7.91225C50.9349 7.91225 50.6655 7.72976 50.7177 7.31265L50.9697 5.44432C51.0826 4.6014 50.8306 4.30595 50.3614 4.30595C49.7009 4.30595 49.1535 4.91424 48.9971 6.1482L48.7798 7.86011H48.1628L48.7624 3.17626C48.832 2.62011 48.6408 2.49845 48.2584 2.49845L48.2932 2.32465C48.8146 2.32465 49.223 2.22907 49.5271 2.15086L49.2143 4.58402C49.1361 5.16625 49.614 3.84538 50.7177 3.84538C51.3086 3.84538 51.7431 4.21905 51.6127 5.22707L51.3607 7.15623C51.3086 7.52989 51.5866 7.63417 51.8734 7.47775L51.8387 7.65155C51.6475 7.84273 51.4128 7.91225 51.2304 7.91225ZM54.3551 7.94701C53.9959 7.94701 53.6888 7.87749 53.4339 7.73845C53.1848 7.59362 52.9936 7.39085 52.8604 7.13016C52.7329 6.86367 52.6692 6.55083 52.6692 6.19165C52.6692 5.82088 52.7214 5.45591 52.8256 5.09673C52.9357 4.73175 53.0921 4.40154 53.2949 4.10608C53.4976 3.80483 53.741 3.56441 54.0248 3.38482C54.3145 3.20523 54.6389 3.11543 54.9981 3.11543C55.4384 3.11543 55.7686 3.21102 55.9887 3.4022C56.2147 3.59338 56.3277 3.85987 56.3277 4.20167C56.3277 4.42761 56.2755 4.64196 56.1712 4.84472C56.067 5.04169 55.9047 5.21549 55.6846 5.36611C55.4645 5.51674 55.1835 5.6355 54.8417 5.7224C54.4999 5.8035 54.0886 5.84406 53.6077 5.84406H53.46C53.4542 5.89619 53.4484 5.95123 53.4426 6.00916C53.4426 6.0671 53.4426 6.11924 53.4426 6.16558C53.4426 6.51897 53.5295 6.79994 53.7033 7.0085C53.8771 7.21126 54.1407 7.31265 54.4941 7.31265C54.7142 7.31265 54.9228 7.28078 55.1198 7.21706C55.3167 7.15333 55.5311 7.06643 55.7628 6.95636V7.6081C55.5427 7.70659 55.3254 7.78769 55.1111 7.85142C54.9025 7.91514 54.6505 7.94701 54.3551 7.94701ZM53.6338 5.22707C53.9814 5.22707 54.3029 5.19811 54.5984 5.14018C54.8938 5.07645 55.1313 4.97507 55.3109 4.83603C55.4905 4.6912 55.5803 4.50002 55.5803 4.2625C55.5803 4.11187 55.5282 3.99021 55.4239 3.89752C55.3254 3.79904 55.169 3.74979 54.9547 3.74979C54.7693 3.74979 54.5868 3.80773 54.4072 3.92359C54.2276 4.03946 54.0654 4.20746 53.9206 4.42761C53.7757 4.64775 53.6599 4.91424 53.573 5.22707H53.6338ZM55.1371 2.59404C55.0271 2.48397 54.9083 2.35072 54.7809 2.19431C54.6592 2.03789 54.5433 1.87857 54.4333 1.71636C54.3232 1.55415 54.2392 1.41222 54.1813 1.29056V1.20366H54.9981C55.0444 1.3427 55.0995 1.48753 55.1632 1.63815C55.2269 1.78878 55.2965 1.93651 55.3718 2.08134C55.4529 2.22038 55.5311 2.35652 55.6064 2.48976V2.59404H55.1371ZM62.1153 7.91225C61.8199 7.91225 61.5505 7.72976 61.6113 7.31265L61.8546 5.44432C61.9676 4.61009 61.733 4.30595 61.2724 4.30595C60.7423 4.30595 60.3165 4.88817 60.1253 6.29593L59.9168 7.86011H59.2998L59.6126 5.44432C59.7169 4.61009 59.4649 4.30595 59.013 4.30595C58.4743 4.30595 58.0398 5.0359 57.9007 6.1482L57.6748 7.86011H57.0578L57.4662 4.61009C57.5097 4.25381 57.2403 4.1756 56.9709 4.31464L57.0057 4.14084C57.1882 3.94966 57.4054 3.88014 57.5966 3.88014C57.8833 3.88014 58.1093 4.02787 58.1093 4.54926C58.1093 5.21838 58.3526 3.84538 59.3867 3.84538C59.8038 3.84538 60.2035 4.06263 60.2818 4.62747C60.36 5.17493 60.5859 3.84538 61.6287 3.84538C62.1935 3.84538 62.6367 4.21905 62.4977 5.22707L62.2457 7.15623C62.1935 7.52989 62.4716 7.63417 62.7584 7.47775L62.7236 7.65155C62.5324 7.84273 62.2978 7.91225 62.1153 7.91225ZM64.9658 7.91225C64.0273 7.91225 63.3408 7.21706 63.3408 6.16558C63.3408 5.14018 64.0099 3.84538 65.3568 3.84538C66.1476 3.84538 66.5474 4.27119 66.5474 4.84472C66.5474 5.44432 66.1129 5.8875 64.8094 6.10475L64.3401 6.18296C64.1229 6.21772 64.0707 6.4089 64.1837 6.68697C64.3662 7.14754 64.7312 7.47775 65.2699 7.47775C65.6089 7.47775 65.9999 7.3474 66.2519 7.06064L66.3736 7.19968C66.1389 7.49513 65.6871 7.91225 64.9658 7.91225ZM64.0186 5.68764C64.0186 5.94833 64.1837 6.00916 64.3836 5.9744L64.6703 5.93095C65.7653 5.74847 65.8956 5.27052 65.8956 4.8621C65.8956 4.36678 65.6784 4.04525 65.2178 4.04525C64.5487 4.04525 64.0186 4.73175 64.0186 5.68764Z" fill="black"/>
<path d="M6.16264 18.2486V19.3071H7.86963V20.2911H6.16264V21.439H8.09325V22.4602H4.88799V17.2274H8.09325V18.2486H6.16264ZM7.32548 16.1764L5.52904 16.9293V16.0497L7.32548 15.185V16.1764ZM10.5168 21.4763H12.1865V22.4602H9.2421V17.2274H10.5168V21.4763ZM14.3904 18.2486V19.3071H16.0974V20.2911H14.3904V21.439H16.321V22.4602H13.1158V17.2274H16.321V18.2486H14.3904ZM15.5533 16.1764L13.7568 16.9293V16.0497L15.5533 15.185V16.1764ZM20.9435 18.8822C20.8491 18.7083 20.7124 18.5766 20.5335 18.4872C20.3596 18.3927 20.1534 18.3455 19.9148 18.3455C19.5024 18.3455 19.1719 18.4822 18.9234 18.7555C18.675 19.0239 18.5507 19.3841 18.5507 19.8364C18.5507 20.3184 18.6799 20.6961 18.9383 20.9694C19.2017 21.2377 19.562 21.3719 20.0192 21.3719C20.3323 21.3719 20.5956 21.2924 20.8093 21.1334C21.028 20.9744 21.187 20.7458 21.2864 20.4476H19.6689V19.5084H22.4418V20.6936C22.3474 21.0116 22.1859 21.3073 21.9573 21.5806C21.7336 21.8539 21.4479 22.0751 21.1 22.244C20.7522 22.413 20.3596 22.4975 19.9223 22.4975C19.4055 22.4975 18.9433 22.3857 18.5358 22.162C18.1333 21.9334 17.8177 21.6179 17.5892 21.2154C17.3655 20.8128 17.2537 20.3532 17.2537 19.8364C17.2537 19.3195 17.3655 18.8599 17.5892 18.4573C17.8177 18.0499 18.1333 17.7343 18.5358 17.5107C18.9383 17.2821 19.398 17.1678 19.9148 17.1678C20.541 17.1678 21.0677 17.3194 21.4951 17.6225C21.9274 17.9256 22.2132 18.3455 22.3523 18.8822H20.9435ZM26.7266 21.5359H24.7736L24.4605 22.4602H23.1263L25.0196 17.2274H26.4955L28.3889 22.4602H27.0397L26.7266 21.5359ZM26.3986 20.552L25.7501 18.6362L25.1091 20.552H26.3986ZM33.9676 22.4602H32.693L30.5611 19.2326V22.4602H29.2864V17.2274H30.5611L32.693 20.47V17.2274H33.9676V22.4602ZM34.9967 19.8364C34.9967 19.3195 35.1085 18.8599 35.3322 18.4573C35.5558 18.0499 35.8664 17.7343 36.2639 17.5107C36.6664 17.2821 37.1211 17.1678 37.628 17.1678C38.2492 17.1678 38.7809 17.3318 39.2232 17.6598C39.6655 17.9877 39.9612 18.435 40.1102 19.0015H38.7089C38.6045 18.7828 38.4554 18.6164 38.2616 18.5021C38.0728 18.3878 37.8566 18.3306 37.6131 18.3306C37.2205 18.3306 36.9025 18.4673 36.659 18.7406C36.4155 19.0139 36.2937 19.3792 36.2937 19.8364C36.2937 20.2935 36.4155 20.6588 36.659 20.9321C36.9025 21.2054 37.2205 21.3421 37.6131 21.3421C37.8566 21.3421 38.0728 21.2849 38.2616 21.1706C38.4554 21.0563 38.6045 20.8899 38.7089 20.6712H40.1102C39.9612 21.2377 39.6655 21.685 39.2232 22.013C38.7809 22.336 38.2492 22.4975 37.628 22.4975C37.1211 22.4975 36.6664 22.3857 36.2639 22.162C35.8664 21.9334 35.5558 21.6179 35.3322 21.2154C35.1085 20.8128 34.9967 20.3532 34.9967 19.8364ZM42.4868 18.2486V19.3071H44.1938V20.2911H42.4868V21.439H44.4174V22.4602H41.2122V17.2274H44.4174V18.2486H42.4868ZM48.7419 17.2274V22.4602H47.4672V17.2274H48.7419ZM55.9129 17.2274V22.4602H54.6383V19.322L53.468 22.4602H52.4393L51.2616 19.3146V22.4602H49.9869V17.2274H51.4927L52.9611 20.8501L54.4147 17.2274H55.9129ZM61.1388 18.912C61.1388 19.2152 61.0693 19.4935 60.9301 19.7469C60.791 19.9954 60.5773 20.1966 60.2891 20.3507C60.0008 20.5047 59.6431 20.5818 59.2157 20.5818H58.4255V22.4602H57.1509V17.2274H59.2157C59.6331 17.2274 59.9859 17.2995 60.2742 17.4436C60.5624 17.5877 60.7786 17.7865 60.9227 18.0399C61.0668 18.2934 61.1388 18.5841 61.1388 18.912ZM59.1188 19.568C59.3623 19.568 59.5437 19.5109 59.6629 19.3966C59.7822 19.2823 59.8418 19.1208 59.8418 18.912C59.8418 18.7033 59.7822 18.5418 59.6629 18.4275C59.5437 18.3132 59.3623 18.2561 59.1188 18.2561H58.4255V19.568H59.1188ZM63.3984 18.2486V19.3071H65.1054V20.2911H63.3984V21.439H65.329V22.4602H62.1238V17.2274H65.329V18.2486H63.3984ZM64.5612 16.1764L62.7648 16.9293V16.0497L64.5612 15.185V16.1764ZM69.1464 22.4602L68.0581 20.4849H67.7525V22.4602H66.4779V17.2274H68.6172C69.0297 17.2274 69.38 17.2995 69.6682 17.4436C69.9614 17.5877 70.1801 17.7865 70.3242 18.0399C70.4683 18.2884 70.5404 18.5667 70.5404 18.8748C70.5404 19.2226 70.441 19.5332 70.2422 19.8065C70.0484 20.0799 69.7602 20.2737 69.3775 20.388L70.5851 22.4602H69.1464ZM67.7525 19.5829H68.5427C68.7762 19.5829 68.9502 19.5258 69.0644 19.4115C69.1837 19.2972 69.2433 19.1357 69.2433 18.927C69.2433 18.7282 69.1837 18.5716 69.0644 18.4573C68.9502 18.3431 68.7762 18.2859 68.5427 18.2859H67.7525V19.5829ZM72.9365 17.2274V22.4602H71.6618V17.2274H72.9365ZM77.439 21.5359H75.486L75.1729 22.4602H73.8387L75.732 17.2274H77.2079L79.1013 22.4602H77.7521L77.439 21.5359ZM77.111 20.552L76.4625 18.6362L75.8214 20.552H77.111ZM81.2735 21.4763H82.9432V22.4602H79.9988V17.2274H81.2735V21.4763ZM85.1471 18.2486V19.3071H86.8541V20.2911H85.1471V21.439H87.0778V22.4602H83.8725V17.2274H87.0778V18.2486H85.1471Z" fill="black"/>
</svg>
